<mxfile modified="2020-07-19T14:40:00.583Z" host="app.diagrams.net" agent="5.0 (Macintosh; Intel Mac OS X 10_15_4) AppleWebKit/537.36 (KHTML, like Gecko) Chrome/83.0.4103.116 Safari/537.36" etag="84w9DmHWn5Z_AXOR1w_N" version="13.4.6" type="github">
  <diagram id="Ht1M8jgEwFfnCIfOTk4-" name="Page-1">
    <mxGraphModel dx="1113" dy="665" grid="1" gridSize="10" guides="1" tooltips="1" connect="1" arrows="1" fold="1" page="1" pageScale="1" pageWidth="1169" pageHeight="827" math="0" shadow="0">
      <root>
        <mxCell id="0" />
        <mxCell id="1" parent="0" />
        <mxCell id="p6E_UJaJ-BBpeie744uk-45" value="" style="rounded=1;whiteSpace=wrap;html=1;dashed=1;strokeWidth=2;perimeterSpacing=14;fillColor=none;" vertex="1" parent="1">
          <mxGeometry x="760" y="1163" width="280" height="240" as="geometry" />
        </mxCell>
        <mxCell id="p6E_UJaJ-BBpeie744uk-31" value="" style="rounded=1;whiteSpace=wrap;html=1;dashed=1;strokeWidth=2;perimeterSpacing=14;fillColor=none;" vertex="1" parent="1">
          <mxGeometry x="400" y="882" width="280" height="240" as="geometry" />
        </mxCell>
        <mxCell id="p6E_UJaJ-BBpeie744uk-40" value="" style="rounded=1;whiteSpace=wrap;html=1;dashed=1;strokeWidth=2;perimeterSpacing=14;fillColor=none;" vertex="1" parent="1">
          <mxGeometry x="760" y="880" width="280" height="240" as="geometry" />
        </mxCell>
        <mxCell id="p6E_UJaJ-BBpeie744uk-32" value="" style="rounded=1;whiteSpace=wrap;html=1;dashed=1;strokeWidth=2;perimeterSpacing=14;fillColor=none;" vertex="1" parent="1">
          <mxGeometry x="40" y="882" width="280" height="240" as="geometry" />
        </mxCell>
        <mxCell id="p6E_UJaJ-BBpeie744uk-29" value="" style="rounded=1;whiteSpace=wrap;html=1;dashed=1;strokeWidth=2;perimeterSpacing=14;fillColor=none;" vertex="1" parent="1">
          <mxGeometry x="40" y="560" width="280" height="240" as="geometry" />
        </mxCell>
        <mxCell id="p6E_UJaJ-BBpeie744uk-30" value="" style="rounded=1;whiteSpace=wrap;html=1;dashed=1;strokeWidth=2;perimeterSpacing=14;fillColor=none;" vertex="1" parent="1">
          <mxGeometry x="397.68" y="560" width="280" height="240" as="geometry" />
        </mxCell>
        <mxCell id="-QjtrjUzRDEMRZ5MF8oH-27" value="2" style="rounded=1;whiteSpace=wrap;html=1;fillColor=#007CBD;strokeColor=none;fontColor=#FFFFFF;fontStyle=1;fontSize=22;" parent="1" vertex="1">
          <mxGeometry x="38.410000000000025" y="560" width="42.11" height="40" as="geometry" />
        </mxCell>
        <mxCell id="-QjtrjUzRDEMRZ5MF8oH-28" value="3" style="rounded=1;whiteSpace=wrap;html=1;fillColor=#007CBD;strokeColor=none;fontColor=#FFFFFF;fontStyle=1;fontSize=22;" parent="1" vertex="1">
          <mxGeometry x="397.68" y="560" width="40" height="38" as="geometry" />
        </mxCell>
        <mxCell id="-QjtrjUzRDEMRZ5MF8oH-47" value="Blog Reporting" style="text;html=1;resizable=0;points=[];autosize=1;align=left;verticalAlign=top;spacingTop=-4;fontSize=30;fontStyle=1" parent="1" vertex="1">
          <mxGeometry x="56.5" y="64.5" width="230" height="40" as="geometry" />
        </mxCell>
        <mxCell id="-QjtrjUzRDEMRZ5MF8oH-48" value="Architecture Diagram" style="text;html=1;resizable=0;points=[];autosize=1;align=left;verticalAlign=top;spacingTop=-4;fontSize=16;" parent="1" vertex="1">
          <mxGeometry x="56.5" y="114.5" width="170" height="20" as="geometry" />
        </mxCell>
        <mxCell id="SCVMTBWpLvtzJIhz15lM-1" value="" style="line;strokeWidth=2;html=1;fontSize=14;" parent="1" vertex="1">
          <mxGeometry x="52.5" y="139.5" width="1060" height="10" as="geometry" />
        </mxCell>
        <mxCell id="7OVz4w7n9kzEPWy-4BBC-3" value="" style="rounded=0;whiteSpace=wrap;html=1;fillColor=#EAEDED;fontSize=22;fontColor=#FFFFFF;strokeColor=none;labelBackgroundColor=none;" parent="1" vertex="1">
          <mxGeometry x="1151" y="51" width="539" height="1220" as="geometry" />
        </mxCell>
        <mxCell id="7OVz4w7n9kzEPWy-4BBC-4" value="1" style="rounded=1;whiteSpace=wrap;html=1;fillColor=#007CBD;strokeColor=none;fontColor=#FFFFFF;fontStyle=1;fontSize=22;labelBackgroundColor=none;" parent="1" vertex="1">
          <mxGeometry x="1169" y="63" width="40" height="38" as="geometry" />
        </mxCell>
        <mxCell id="7OVz4w7n9kzEPWy-4BBC-5" value="2" style="rounded=1;whiteSpace=wrap;html=1;fillColor=#007CBD;strokeColor=none;fontColor=#FFFFFF;fontStyle=1;fontSize=22;labelBackgroundColor=none;" parent="1" vertex="1">
          <mxGeometry x="1167.5" y="185" width="40" height="38" as="geometry" />
        </mxCell>
        <mxCell id="7OVz4w7n9kzEPWy-4BBC-6" value="3" style="rounded=1;whiteSpace=wrap;html=1;fillColor=#007CBD;strokeColor=none;fontColor=#FFFFFF;fontStyle=1;fontSize=22;labelBackgroundColor=none;" parent="1" vertex="1">
          <mxGeometry x="1167.5" y="305" width="40" height="38" as="geometry" />
        </mxCell>
        <mxCell id="7OVz4w7n9kzEPWy-4BBC-7" value="4" style="rounded=1;whiteSpace=wrap;html=1;fillColor=#007CBD;strokeColor=none;fontColor=#FFFFFF;fontStyle=1;fontSize=22;labelBackgroundColor=none;" parent="1" vertex="1">
          <mxGeometry x="1167.5" y="419" width="40" height="38" as="geometry" />
        </mxCell>
        <mxCell id="7OVz4w7n9kzEPWy-4BBC-8" value="5" style="rounded=1;whiteSpace=wrap;html=1;fillColor=#007CBD;strokeColor=none;fontColor=#FFFFFF;fontStyle=1;fontSize=22;labelBackgroundColor=none;" parent="1" vertex="1">
          <mxGeometry x="1169" y="536" width="40" height="38" as="geometry" />
        </mxCell>
        <mxCell id="7OVz4w7n9kzEPWy-4BBC-9" value="6" style="rounded=1;whiteSpace=wrap;html=1;fillColor=#007CBD;strokeColor=none;fontColor=#FFFFFF;fontStyle=1;fontSize=22;labelBackgroundColor=none;" parent="1" vertex="1">
          <mxGeometry x="1170" y="651" width="40" height="38" as="geometry" />
        </mxCell>
        <mxCell id="7OVz4w7n9kzEPWy-4BBC-10" value="7" style="rounded=1;whiteSpace=wrap;html=1;fillColor=#007CBD;strokeColor=none;fontColor=#FFFFFF;fontStyle=1;fontSize=22;labelBackgroundColor=none;" parent="1" vertex="1">
          <mxGeometry x="1169.5" y="767" width="40" height="38" as="geometry" />
        </mxCell>
        <mxCell id="7OVz4w7n9kzEPWy-4BBC-11" value="8" style="rounded=1;whiteSpace=wrap;html=1;fillColor=#007CBD;strokeColor=none;fontColor=#FFFFFF;fontStyle=1;fontSize=22;labelBackgroundColor=none;" parent="1" vertex="1">
          <mxGeometry x="1170" y="885" width="40" height="38" as="geometry" />
        </mxCell>
        <mxCell id="7OVz4w7n9kzEPWy-4BBC-12" value="9" style="rounded=1;whiteSpace=wrap;html=1;fillColor=#007CBD;strokeColor=none;fontColor=#FFFFFF;fontStyle=1;fontSize=22;labelBackgroundColor=none;" parent="1" vertex="1">
          <mxGeometry x="1168" y="1005" width="40" height="38" as="geometry" />
        </mxCell>
        <mxCell id="7OVz4w7n9kzEPWy-4BBC-13" value="&lt;span&gt;Lorem ipsum dolor sit amet, consectetur adipiscing elit, sed do eiusmod tempor incididunt ut labore et dolore magna aliqua. Ut enim ad minim veniam, quis nostrud exercitation ullamco laboris nisi ut aliquip ex ea commodo consequat. Duis aute irure dolor in reprehenderit in voluptate velit esse cillum dolore eu fugiat nulla pariatur. Excepteur sint occaecat cupidatat non proident, sunt in culpa qui officia deserunt mollit anim id est laborum.&lt;/span&gt;&lt;br&gt;" style="text;html=1;align=left;verticalAlign=top;spacingTop=-4;fontSize=14;labelBackgroundColor=none;whiteSpace=wrap;" parent="1" vertex="1">
          <mxGeometry x="1220.5" y="62.5" width="449" height="118" as="geometry" />
        </mxCell>
        <mxCell id="7OVz4w7n9kzEPWy-4BBC-14" value="&lt;span&gt;Lorem ipsum dolor sit amet, consectetur adipiscing elit, sed do eiusmod tempor incididunt ut labore et dolore magna aliqua. Ut enim ad minim veniam, quis nostrud exercitation ullamco laboris nisi ut aliquip ex ea commodo consequat. Duis aute irure dolor in reprehenderit in voluptate velit esse cillum dolore eu fugiat nulla pariatur. Excepteur sint occaecat cupidatat non proident, sunt in culpa qui officia deserunt mollit anim id est laborum.&lt;/span&gt;&lt;br&gt;" style="text;html=1;align=left;verticalAlign=top;spacingTop=-4;fontSize=14;labelBackgroundColor=none;whiteSpace=wrap;" parent="1" vertex="1">
          <mxGeometry x="1219.5" y="185.5" width="450" height="115" as="geometry" />
        </mxCell>
        <mxCell id="7OVz4w7n9kzEPWy-4BBC-15" value="&lt;span&gt;Lorem ipsum dolor sit amet, consectetur adipiscing elit, sed do eiusmod tempor incididunt ut labore et dolore magna aliqua. Ut enim ad minim veniam, quis nostrud exercitation ullamco laboris nisi ut aliquip ex ea commodo consequat. Duis aute irure dolor in reprehenderit in voluptate velit esse cillum dolore eu fugiat nulla pariatur. Excepteur sint occaecat cupidatat non proident, sunt in culpa qui officia deserunt mollit anim id est laborum.&lt;/span&gt;&lt;br&gt;" style="text;html=1;align=left;verticalAlign=top;spacingTop=-4;fontSize=14;labelBackgroundColor=none;whiteSpace=wrap;" parent="1" vertex="1">
          <mxGeometry x="1219.5" y="303.5" width="450" height="117" as="geometry" />
        </mxCell>
        <mxCell id="7OVz4w7n9kzEPWy-4BBC-16" value="&lt;span&gt;Lorem ipsum dolor sit amet, consectetur adipiscing elit, sed do eiusmod tempor incididunt ut labore et dolore magna aliqua. Ut enim ad minim veniam, quis nostrud exercitation ullamco laboris nisi ut aliquip ex ea commodo consequat. Duis aute irure dolor in reprehenderit in voluptate velit esse cillum dolore eu fugiat nulla pariatur. Excepteur sint occaecat cupidatat non proident, sunt in culpa qui officia deserunt mollit anim id est laborum.&lt;/span&gt;&lt;br&gt;" style="text;html=1;align=left;verticalAlign=top;spacingTop=-4;fontSize=14;labelBackgroundColor=none;whiteSpace=wrap;" parent="1" vertex="1">
          <mxGeometry x="1219.5" y="419.5" width="450" height="121" as="geometry" />
        </mxCell>
        <mxCell id="7OVz4w7n9kzEPWy-4BBC-17" value="&lt;span&gt;Lorem ipsum dolor sit amet, consectetur adipiscing elit, sed do eiusmod tempor incididunt ut labore et dolore magna aliqua. Ut enim ad minim veniam, quis nostrud exercitation ullamco laboris nisi ut aliquip ex ea commodo consequat. Duis aute irure dolor in reprehenderit in voluptate velit esse cillum dolore eu fugiat nulla pariatur. Excepteur sint occaecat cupidatat non proident, sunt in culpa qui officia deserunt mollit anim id est laborum.&lt;/span&gt;&lt;br&gt;" style="text;html=1;align=left;verticalAlign=top;spacingTop=-4;fontSize=14;labelBackgroundColor=none;whiteSpace=wrap;" parent="1" vertex="1">
          <mxGeometry x="1220.5" y="536.5" width="449" height="114" as="geometry" />
        </mxCell>
        <mxCell id="7OVz4w7n9kzEPWy-4BBC-18" value="&lt;span&gt;Lorem ipsum dolor sit amet, consectetur adipiscing elit, sed do eiusmod tempor incididunt ut labore et dolore magna aliqua. Ut enim ad minim veniam, quis nostrud exercitation ullamco laboris nisi ut aliquip ex ea commodo consequat. Duis aute irure dolor in reprehenderit in voluptate velit esse cillum dolore eu fugiat nulla pariatur. Excepteur sint occaecat cupidatat non proident, sunt in culpa qui officia deserunt mollit anim id est laborum.&lt;/span&gt;&lt;br&gt;" style="text;html=1;align=left;verticalAlign=top;spacingTop=-4;fontSize=14;labelBackgroundColor=none;whiteSpace=wrap;" parent="1" vertex="1">
          <mxGeometry x="1220.5" y="652.5" width="450" height="118" as="geometry" />
        </mxCell>
        <mxCell id="7OVz4w7n9kzEPWy-4BBC-19" value="&lt;span&gt;Lorem ipsum dolor sit amet, consectetur adipiscing elit, sed do eiusmod tempor incididunt ut labore et dolore magna aliqua. Ut enim ad minim veniam, quis nostrud exercitation ullamco laboris nisi ut aliquip ex ea commodo consequat. Duis aute irure dolor in reprehenderit in voluptate velit esse cillum dolore eu fugiat nulla pariatur. Excepteur sint occaecat cupidatat non proident, sunt in culpa qui officia deserunt mollit anim id est laborum.&lt;/span&gt;&lt;br&gt;" style="text;html=1;align=left;verticalAlign=top;spacingTop=-4;fontSize=14;labelBackgroundColor=none;whiteSpace=wrap;" parent="1" vertex="1">
          <mxGeometry x="1220.5" y="767.5" width="449" height="113" as="geometry" />
        </mxCell>
        <mxCell id="7OVz4w7n9kzEPWy-4BBC-20" value="&lt;span&gt;Lorem ipsum dolor sit amet, consectetur adipiscing elit, sed do eiusmod tempor incididunt ut labore et dolore magna aliqua. Ut enim ad minim veniam, quis nostrud exercitation ullamco laboris nisi ut aliquip ex ea commodo consequat. Duis aute irure dolor in reprehenderit in voluptate velit esse cillum dolore eu fugiat nulla pariatur. Excepteur sint occaecat cupidatat non proident, sunt in culpa qui officia deserunt mollit anim id est laborum.&lt;/span&gt;&lt;br&gt;" style="text;html=1;align=left;verticalAlign=top;spacingTop=-4;fontSize=14;labelBackgroundColor=none;whiteSpace=wrap;" parent="1" vertex="1">
          <mxGeometry x="1220.5" y="886.5" width="449" height="124" as="geometry" />
        </mxCell>
        <mxCell id="7OVz4w7n9kzEPWy-4BBC-21" value="&lt;span&gt;Lorem ipsum dolor sit amet, consectetur adipiscing elit, sed do eiusmod tempor incididunt ut labore et dolore magna aliqua. Ut enim ad minim veniam, quis nostrud exercitation ullamco laboris nisi ut aliquip ex ea commodo consequat. Duis aute irure dolor in reprehenderit in voluptate velit esse cillum dolore eu fugiat nulla pariatur. Excepteur sint occaecat cupidatat non proident, sunt in culpa qui officia deserunt mollit anim id est laborum.&lt;/span&gt;&lt;br&gt;" style="text;html=1;align=left;verticalAlign=top;spacingTop=-4;fontSize=14;labelBackgroundColor=none;whiteSpace=wrap;" parent="1" vertex="1">
          <mxGeometry x="1220.5" y="1005.5" width="449" height="115" as="geometry" />
        </mxCell>
        <mxCell id="7OVz4w7n9kzEPWy-4BBC-22" value="10" style="rounded=1;whiteSpace=wrap;html=1;fillColor=#007CBD;strokeColor=none;fontColor=#FFFFFF;fontStyle=1;fontSize=22;labelBackgroundColor=none;" parent="1" vertex="1">
          <mxGeometry x="1169" y="1130.5" width="40" height="38" as="geometry" />
        </mxCell>
        <mxCell id="7OVz4w7n9kzEPWy-4BBC-23" value="&lt;span&gt;Lorem ipsum dolor sit amet, consectetur adipiscing elit, sed do eiusmod tempor incididunt ut labore et dolore magna aliqua. Ut enim ad minim veniam, quis nostrud exercitation ullamco laboris nisi ut aliquip ex ea commodo consequat. Duis aute irure dolor in reprehenderit in voluptate velit esse cillum dolore eu fugiat nulla pariatur. Excepteur sint occaecat cupidatat non proident, sunt in culpa qui officia deserunt mollit anim id est laborum.&lt;/span&gt;&lt;br&gt;" style="text;html=1;align=left;verticalAlign=top;spacingTop=-4;fontSize=14;labelBackgroundColor=none;whiteSpace=wrap;" parent="1" vertex="1">
          <mxGeometry x="1221.5" y="1131" width="449" height="115" as="geometry" />
        </mxCell>
        <mxCell id="p6E_UJaJ-BBpeie744uk-2" value="" style="shape=image;verticalLabelPosition=bottom;labelBackgroundColor=#ffffff;verticalAlign=top;aspect=fixed;imageAspect=0;image=data:image/png,iVBORw0KGgoAAAANSUhEUgAABLAAAAIlCAMAAADyhPE3AAAAGXRFWHRTb2Z0d2FyZQBBZG9iZSBJbWFnZVJlYWR5ccllPAAAA99pVFh0WE1MOmNvbS5hZG9iZS54bXAAAAAAADw/eHBhY2tldCBiZWdpbj0i77u/IiBpZD0iVzVNME1wQ2VoaUh6cmVTek5UY3prYzlkIj8+IDx4OnhtcG1ldGEgeG1sbnM6eD0iYWRvYmU6bnM6bWV0YS8iIHg6eG1wdGs9IkFkb2JlIFhNUCBDb3JlIDUuNS1jMDIxIDc5LjE1NDkxMSwgMjAxMy8xMC8yOS0xMTo0NzoxNiAgICAgICAgIj4gPHJkZjpSREYgeG1sbnM6cmRmPSJodHRwOi8vd3d3LnczLm9yZy8xOTk5LzAyLzIyLXJkZi1zeW50YXgtbnMjIj4gPHJkZjpEZXNjcmlwdGlvbiByZGY6YWJvdXQ9IiIgeG1sbnM6eG1wTU09Imh0dHA6Ly9ucy5hZG9iZS5jb20veGFwLzEuMC9tbS8iIHhtbG5zOnN0UmVmPSJodHRwOi8vbnMuYWRvYmUuY29tL3hhcC8xLjAvc1R5cGUvUmVzb3VyY2VSZWYjIiB4bWxuczp4bXA9Imh0dHA6Ly9ucy5hZG9iZS5jb20veGFwLzEuMC8iIHhtbG5zOmRjPSJodHRwOi8vcHVybC5vcmcvZGMvZWxlbWVudHMvMS4xLyIgeG1wTU06T3JpZ2luYWxEb2N1bWVudElEPSJ1dWlkOjVEMjA4OTI0OTNCRkRCMTE5MTRBODU5MEQzMTUwOEM4IiB4bXBNTTpEb2N1bWVudElEPSJ4bXAuZGlkOjgwM0QwRDZBQkI0MTExRTNCNTdFODRCQzkzMjA5ODAwIiB4bXBNTTpJbnN0YW5jZUlEPSJ4bXAuaWlkOjgwM0QwRDY5QkI0MTExRTNCNTdFODRCQzkzMjA5ODAwIiB4bXA6Q3JlYXRvclRvb2w9IkFkb2JlIElsbHVzdHJhdG9yIENTNSI+IDx4bXBNTTpEZXJpdmVkRnJvbSBzdFJlZjppbnN0YW5jZUlEPSJ4bXAuaWlkOkVBMUE0NjY5MTAyMDY4MTE5MkIwQjExQUFDN0YyNkQzIiBzdFJlZjpkb2N1bWVudElEPSJ4bXAuZGlkOkVBMUE0NjY5MTAyMDY4MTE5MkIwQjExQUFDN0YyNkQzIi8+IDxkYzp0aXRsZT4gPHJkZjpBbHQ+IDxyZGY6bGkgeG1sOmxhbmc9IngtZGVmYXVsdCI+UHJpbnQ8L3JkZjpsaT4gPC9yZGY6QWx0PiA8L2RjOnRpdGxlPiA8L3JkZjpEZXNjcmlwdGlvbj4gPC9yZGY6UkRGPiA8L3g6eG1wbWV0YT4gPD94cGFja2V0IGVuZD0iciI/Pl5Dnn8AAAAzUExURQAAAP9KAP9KAP9KAP9KAP9KAP9KAP9KAP9KAP9KAP9KAP9KAP9KAP9KAP9KAP9KAP9KAPC29l0AAAAQdFJOUwAQIDBAUGBwgI+fr7/P3+8jGoKKAAAlSUlEQVR42u2d2YKcOAwAOYwxYI7//9p9SHY3mZnuxsaHBFXPCdMYuSwfiKYBuBG9cc777fiD1S9uNC1tAwDCOF7haRsAQFgAAAgLABAWAADCAgBAWACAsAAAEBYAAMICAIQFAICwAAAQFgAgLACAdAxbn0dY89rRugCQkuk49j6HsObj2AfaFwCS0a7H8clYccKaj+M4DkcTA0Ai+v2Xet4aK0pY8+9/s1DlDwCSYPd/3fPOWDHCmv8vToqxACCFr/6QzxtjRQhrPndlAICTuL/s89or4cKaT14ZAOAc8xf9vPRKsLBOXxkAIMpXr70SKqzzVwYAiPPVS68ECivgygAAJxh/NNDPXgkT1hxwZQCAz9gXCvrRK0HCml9dmdd0ACAK89JBPxkrRFjzy3/MeSwAiKHfjxBjBQjrta+o7QAAMfx6f/C8sc4r6J2vjmOi6QEglOWtVr4b67Sw3vvqOCxtDwBhjB+08s1YZ4U1h14YAOA9/XEEiuWksObPF15pfgAIYThCjXVOWCd8xU4hAARiQ411Slj4CgAkGOuMsPAVAIgw1glh4SsAkGGsz8LCVwAgxFgfhYWvAECKsT4JC18BgBhjfRAWvgIAOcZ6Lyx8BQCCjPVWWPgKACQZ652w8BUAiDLWG2HhKwCQZazXwsJXACDMWMcV8BUAlDQWvgKAJxgLXwGAFmPhKwDQYix8BQBajIWvAECLsfAVAGgxFr4CAC3GwlcAoMVY+AoAtBgLXwGAFmPhKwCoaqzNz+433u/4CgBkGmubrfnyb1vjlh1fAYAsYy1j9+rfm2nDVwAgxli+e/8/DL4CACnGsp/+x4KvAECIsdrA/4CvAOCihdx51r8XsD5eu/1bWFPAn+p4MgDwDR99oGr8fPE158UB4HHEO6X/fPEp+uKOJwMA34hWyn7i4kP01T1PBgDSCeuMUlqEBQDpMHknbfGfAePRAEA6Ydkzl/cICwCSEb/KZM5cPn7VnTNbAPAVF22ULu/lDc8GAJIZ5dTlLcICAC3CMggLAJKxICwA0ILPe1AKYQEAwgIAhBXwLQmEBQBahMUaFgCUZkZYAKCFzMcaRoQFAAKE1ee9PMICgMJGyTzjBIBHEf/uzKkixlRrAIB0xK+KT2cun7WeKQA8jD5rTdCOiqMAkJAj56TNIiwASMiWc9U9fs2dr+YAwHd8TqfE29DyZADgG705zxr4NuGXJawx4E9RIRkALjGHFkn+cs5972lDAKjjq88nsb5+VRpjAUAlXx3b8H5C+P1FQowFAHV8dRzHPtsXi039uP74HzAWANTx1a+193n8e4m8M255+cVnjAUA9Xz1r7b8bz6dZMBYAFDZVyFvCWIsAFDiK4wFAHp8hbEAQI+vMBYA6PEVxgIAPb7CWACgx1cYCwD0+ApjAYAeX2EsANDjK4wFAHp8hbEAoKyv1tc2wlgAIMtX7evP3liMBQCifNW8+U4XxgIAUb56JyyMBQCifPVWWBgLACT56r2wMBYACPLVB2FhLACQ46tPwsJYACDGVx+FhbEAQIqvPgsLYwGAEF+dEBbGAgAZvjojLIwFACJ8dUpYGAsAMjCG+uqcsM4Zq6P9ASCAbg/01UlhnTHWQvMDQBBDoK/OCuuzsbaW1geAMKYwX50W1kdjsYQFAMH4IF+dF9YHY1laHgCCadcQXwUI662xJhoeACLo9wBfhQjrjbFYcAeAtMb6yVdBwnpprJUFdwCIZAiwSpCwXhgLXwFAPPa8VcKEFXJlAIBIY72ySqCwAq4MABBnrJdWCRXW+SsDAJw11n7OKsHC+mIsfAUA1/lzr/CNVcKF9Zex8BUAJDHWdsYqEcL6w1gzzQwASfj3zPvbLChGWP8Zy9HIAJCK6fOsLUpYv4y1D7QwAKTD7p9WmeKE1djjWCnYBwBJ6ecPq+KRwmosrzsDQGlihQUAgLAAABAWACAsAACEBQCAsAAAYQEAICwAAIQFAAgLAABhAQDCQlgAoIOdb6MCgBpaMzi3eO+34zgO772fnTM9DQMAAAAAAAAAAAAAAAAAAAAAAAAAAAAAAAAAAAAAAAAAAAAAAAAAAAAAAAAAAAAAAAAAAAAAAAAAAAAAAAAAAAAAAAAAAAAAAAAAAAAAAAAAAAAAAAAAAAAAAAAAAAAAAAAAAAAA8AHzm/a5TdD+agFioUSgtbQEBEWNc27x3m/HT+ze+9m5wfS3l9TgJu/Xrw2wej85azpCJUWwOTd5738OM+cGmhleh87ywlGv2P3ihjumHb2d/P7x9tfFDfSnyBYe3OLPRRnNDH+Zyp4OndcRdaM0vh+XPUjajpli8GgQHGO7dwNTxWfTmvFMHnHWWrOtMwz2xpjR/WY05tJUdZijGsS7nnjKMBp8jbGp+tjQ/RltjhW3Us0+uGU7krNNBUfBfnDz9wWmf5eZZjcEO2RYLtz7Pg/E1fsB0s7Xh8d9sW0dUY3Ov0oMvXfjFXF1xrrJ+7+yB/97De/bZa3XxsUHZrK46j/KBFS/nhqRXcAVr/embM5KFztTPVstykLsz9jw54brmN44zu8vPn79H9OhjTE+aoZpLfADCwSUOZnyne5Oidpln/pqN3tq7lpHVwlt9XtoKDoFP/kA1uDU4YQI52+jlzphrZJl9W8zGxEhdJwyZ+f2lI/Hpr7ZUbewEuSuRZr5erTlWC391ts3dcI6wkeX3hX38ja2AkLohDe7OfWt7y7trc+ahWWzRV7qZi4Sbb8vGODwr/9Xn6++Z4mfXF5HyvvUVQ+hj4tY7SS/L3m1wmpt1tArpayz0XYu6WvHoEb50olahcLaQxp72muqtascQp/WQd2uoC8dSoXVuuyxV0ZZyYbHmEYx2RY0Zc4JK6/RZVKWSdJBTc7xfx+fLawCuiqlLJOsdSMaZdQvrKCoq72pkCegzj62d9uE7ZL51jdT9F5lCcsWW4fYrBRhfdyUHiMc7rLtwBRTQKdJWMexDfVC6M3GzVAgAZjbhwrLFF029b0MYX3YJuyjtumXL4sY+oQVNtWQcGzDd9VCqK+VXv0eXBLIelQnrK540DkZwnorTpfkkekTVmDMiThnlm49JzSEXszKTLGtiOVykuW0CatGn9qMBGENqdOrOwgrMFsRcpLft3VCaKzepbb+WcIylU42OgHCev0bbPwIKTAByflcpBh5H8SEUFv4oV9ML2dNwmrrDZBrV11YU45nqFtYa6NUWGmHQHOhh/Zr6Tu/tvbuFQmrr/niyG5rC+tF83aXIk63sILnF1bOb19aCSHUVzhJu7bPEFbt0XGqLKyfzzVcjDjVwnL5Glt6v428KxkC3/sHCKv1N4qwNNGWIuI0C2sLfx69pN+/97VDyOq7cy3CMruEHtJXFVaXIevULKyYvdvjjsYykU1Wb4Icv8CiRFhCjmDvpqawTIYtE8XCipqi73c0VmQIVV3Qs3cWVjuLCTFbUVg2wxavXmHtbe14F2Os8yHk5GxA2PsKq10FhZitJyyXoVn0CivuJJO0GtBJjBUVQkZnT1IgrF5WGUxbTVhzBo2rFdaiem3hf1Ls5JiILtrvOl0tX1j9LizEbC1h+Qxpp1Zh7W3u1i5mrJIh9N8fawX0qihjiReWOF+lNpaJC+1E02Stwop+BvJuZS4YQoeoVZaYUUe6sOytekuaaEu03q5ZWPGhtt4wnAJCqE0bPuXnw5NsYVmZ/WWoLaxkASfrZYLTQ3P8m50Cv7x4eeE9IISMrOccnl3KrtZgpXaYvoqwuuRPbdMprAtv/A8Cb2ctF0JW2ELeeCth9WJ7zN7WEJZJ7nGd9bCuBJrIDwO5YiHkhCy4f4vpGjlMamEJXG+/MvtOJqz+eLiwLuW3/nZ3FBJCs7QWCB36Bdd0l+yrFHs74U/gV/7cJWyXSfqmf/p8ROSHNtZSIeTFjUrLXYTVCv9s+lheWC75PpdTKKyLKz6dyJuyhUJok7fOEtiRxAprld5x+jrCmjL2k16DsMwdA+vSomjIOCPv9gO3fHehwkp3UmT3fnH/MftUU/itrSGsIWvnV+Cry3UU4+eEq/+FtHluiLAELlOGecPLFFaSlYZ1dubHPMjYKcF9z6WFtaRdwPohS9zF++r6MHF+Trh7Pzk3GPNTUmfM4JxPlq9cOFqm8oPd0ZPCSaSwrj+C1ZkPoW3c1WgbCt+qT77Do2ILLemEsGmaz18N3bwbzckpfz84n8Lzs2xhbf4/ki8uB82HR4nCunpSZLHnmqAb12INnURYibe4tnwT8UzMmVt895ONcGI/Xv92cidTWJt39tvY35tx8nuVp9pLFNalgX61IR7pr/TRpbCwEk8Ivz8x6Qex0hzYfZEieDdc+ZjbMF97Ok6esLb5bYt0dk6UbYWMEe4tVYR1pdvMwZt3nYsPtKGssFLP2JIdJiu1TpnmJU77Q8+0CTZ9W+uryDiPsNbxjL77McUy3posqGoI60LSN0cNkV10lpVgp7Dmiqmr6auIef+S6E//lRes05DuK7lXEvZRUAht7nybdNP1xN8qFlb8idElOvB6X63L1xSWqSmspWAO8irF2mab+pPeF0Y/MSHkQzNZezXN2hQLK3bfcrvU/cbIUaLTLKy+oq+GginIzymWH/Pcf+cLjx+JQyhqmmIuKsupFZapdMeRYeaVCGv3f7Mex8+fZpU7IUx4bMbu89BmlHHc6DdLCKHoaYq9tACfKnsuH1Bxt53iG6eu6LBYSFibd+OPBx+bbhgrCis8j967Rg1t3CmH+oXq1wvh3E4CUqziwoqzxpLEz1Gfl17FCmtfPh6erYapFtGFiKrbZCuH0H61MNdWPcUqLay4d+mnRFHWr+WiLLOwci3QVNtYWRtdxFRHWuqGkL+cw7YXzs+OKoXlj/LK+LPBI4y1yRPWYlvZvTkij+6bBxirrRlCrtKTTbpRWFhYpq6v4oxlZQlrG1vxffnuE8JYY9l6IbQnOuMSX8PYKhTWVtlXUcbaJAnLDwq68lpp+BXv5aVaCK1dRU8nnPSXFZat7qsoYw1ihOWNho4cMW0wGoUVHs97rRBaEmbl0cYy2oQVU6TBJo+y8AVhL0RYm1XRjSNe4Z4ancxF+uz1EEr7Uqmp+CuKCsvVbunYEcKIENbU6ujF4RsrW6tUWMGDn6sSQql7Uew6VqtLWHUPP//BUPKBpxLWpmXWFFGkwTRaGUoEtBHmq+i9wlGXsMLvcs808gYf2a1f33bWkoRULNKgIZ2sEEI5Zilx57E2VcKKiORsI2/owrurLSyrpgcvYoalIvQFQtqI81VsyRWjSVjhCZYTE2ZbXWHtek5VRhRpGBrNBK67j6VDaM0zHJhK8iworGAn53xZwxXrVAmEterx1cMmhOHPdykcQtnS16g3oXdFwgrfWcjaTbdSQ0OCDwQpmjLdu0hDguWFrXAIZVtViZsUDnqEFXx/eV/WCA2CegW5Nfkq4mZH5b4KHYnLhlDGThT1yd9ZjbCCGz332ZzA7R1bS1iafBUx6nrtvmra7ClPfAh5QT0ofpe0irDm4snjBwIL3SyVhKXqTGXE8ZxOvbAC90XHgiGUd7od9TGZQYmwOnkjb6BC2yrC2jVVXXlGkYaLc8KpYAiNonpQkjlhKYcEH3/Of/g50KG2irBUnQEPf618vYGvAueEvlwIrbJ6UJJ9wlLC2sQlWKEDxFJDWKoSkCdU7bsu6q1cCBlZPSjJjyokESMxswicwVQQlqoV6YgiDe4Wvgo8y1EshPJ/9zsmxZpUCGsW2VPDtjmG4sLSdUTpQUUavhC2wd8VCqES0RORYq0qhLULTLBCV0vn4sKymnrto4o0XEk0TKEQKpG+xmwUdgqENZS1cB6PbqWFpWpC2D6nat/FOBrKhFCZV8p96WG4TAeahaYWU4GhIV5YqiaE4UUa7jIhDO22rkwIlVkfjCjlNysQ1i5xcAjOaMeywlK1Iv24Ig3xA18hYRUa7sIT602+sIaiDg4h6LRF2U+eqKoS9bwiDX/h8t54TAjNEl2dQKVFhBU6Iyx3Oieouct+8kTVS8HTvX2c9Bn7IiFUqg/1hVPrIsLaSuaMGZu7Kyis7bYdVuEOqD5hlduwCX/ffZIurF5wbrFn72SRwtLUoR9ZpCG6G20lQqhc+Ixln32JPxT6ykbJ3bE5+9AQeervtks4Co/Epu1GR4EQKhg+EafdpQsr8KxG0RdibfZfJvfUX8VljLFBWDlDaC547+HpdS9bWK3kvtplHxrihKVpSXotOylQ3wQFQqjkkZHwDRcrW1hDQf9mHh+KfaNpVtRZH1ukIXYSkT+Eii4ohAf4JFtYk+DGDlzEsqWEpahHP7dIg1xhlR3v9pIJdoG/s4pOLsbcQ0OMsNa79lV1d5ejEfrsIVR2i3kpmQDmF1YrurFzH6GJE5aiNenx1uljFmGZ7CHUCg+BTrKwTLmbyd4CeyFh6Vlyf3SRBqnCKpzChu8SG8nCClyTLX7Ce81skghhKXrN7tFFGqQKq/SQsBecQeQXVuAaxyy6y5X5qJyeU+4RRRpMg7Ayh5CVfPcXjZpfWHsx+cbhModChLDU5CBMCEUKq5fchS5uE2b/M730ATjorLsrISw9u2gPL9IgVVil794UjPDswrLCGzustecSwlJzTCkieRwahJVbWMXfI2iDw0CwsCbp2UWXuQnCe7WWbf+IIg1Lg7CyC6v8axLBgdDJFZb0NffcpUGEv1dRdOlCxYSwN2Zwzjk3+f+Y3L8MxhjTyRaWk+3raws/2YW1i58OZc5lzV2zkHsVaejM6BZ/PlXw3js3GtPKE1b5fdjgoWsQK6zukN7Ymd8DCxeWliWsuxRp6IxbIr5W9X/W7We3PVtYtlyMS3sxpRMurAJfwVRyUOkOVfta4/x+lCa3sMq3o7mPsELDukFYOnwVUaRB1oSwHab1qML9hNWENsEiVljiNwmzH3UX/iJYsXVWUTdmasmqgLBqtHPo6OXFCsuXupFCc5v8X8HUseauuEhDa+f9qElmYXkFw5dcYcnfJJQmLBVr7q3aqn12OWpzQ2EFN6pYYR0I645r7uG9XsSEsK+cWxUR1iy9D0kWVuhZncWVx8sSloZz7iqLNLR2O0SQWVgOYcULyxw3Y8neBPecEFYv0tCJSK7uKqzgft4JFZa7m7Cyf2dcwyfqw4s01K7aZ2ZBMYSwLiTcCEuYsBR8ss8U6KNpf7AXFUM3FFZ3F2EtCCuwe8svcKetSEPnhcXQDYXV3EVYHmGJf9U+f9Zcs0hDO4uLIYQlV1grwgoUlvh67hFFGipW7XP7gbAKENrMTqiwDoQl/lX77GNQvQmh2STG0B2F5REWwrrLhLBWkQaBs0GEJVtYHcIKFZbwmpyKijQM+4GwEFbuDfCnC0t4guULtFia9GoSG0MIC2EhrDKEF2moNCHsBW/33FFYM8J6prBkf4FCTZEGux8IS/LSplBhjQhLQW2Q82gp0jCLjiGEJVZYDmHdSVgRRRpq1J5ohZ/+Q1gIC2ExIdSwfIWwEBbCKkVEkYYavtoPhIWwENYvpucKS0eRBvm+QlhyhTXdTli5K47Kffc5okjDhK8QlipheYR1G2GFZ8sVqvZp8BXCQlgIK78KwttqwFcIC2EhrCpoKNKgw1cIC2EJDrabCEtD1b52OxAWwkJYCCumSEP5CeF6ICyEhbAQlo4iDfOBsBAWwkJYOoo02ANh1QuhBWHJpHmisFoFVfv6A2FVDCGPsBCWGMKLNBSfECZdcPd+cm4wxvyRJvbGGDM657z3COtyTzcIC2HlIqJIQ/EJYZoFrM07e64rGWOdW/yGsBCWZLYHCktDkYbh+qNdpyFKs8Y4t+wIC2FJxD9QWOEvhK4KnPr3FsE8tOX6Kx9SFSusGWGpF1ZEkYZevlP/stX134uwAmllCut25WXmxwlLQ5GGK58O8Ek+tY2wsq8FI6wY3OOEpaFIQ/wR9znR7sDThWUQFsISQcTxpuJV+2xtXSGsUGFtNxGW7G/GlHiW0oQVnrwUnxDGHsHyCZfani4sW6yjC8uwEJb2CWH5Ig1xafxuU/6GpwvL3URYBmGpFpaGIg1xRxqWtF59urBCt2kdwkJYGQg/R1e+al9UgjXWbKgbCssjLIRVn4giDeXLuEesYO2mQVhVH4IVKqwOYSkWVsRkyxb/kRFbhHv6g61PF1a5neTMK2Xit8QR1msUFGmI2cbM4KunCyv48EuHsBBWasJfKC5ftS/inFgOXz1dWEO5mVRmYW0IS6uwNFTti3iLMIuvni6s0I2PVaywvPyQR1iJVFDl2G+wVfOssj1cWEu5SMn8Z4qVekZYVX/2cRwVijREzEXmBmGlZyvXzTMLKzRXnBCWkAlh+GmBGj89tH5Rrhezny2stuDagTBheYQlg/DjmGuNnxk6I8y1RvpsYQVn40assIyGqEdY39BQpCHiZ2Y7h/9sYQWPbu1thHUgLBEoKNIQ01M6hFX97o/j2BuxwmoKuhdhVZwQblUeXGBPmRuElYOS28m5/86uYGKBsL4QUaShznMTs435aGEFT6OcYGFxEEuhsMKLNMwKmjbnjs6jhRWcjw+ChRV6/HBCWNVRUaQh4odahCVjfOsEC4tzDeqE1Sqo2veLwFNYLcLKEi/Bw1sjWFim5M0grBSEF2lYKv3SVcyvfLKwggv8eMnCakumiwgrARFFGmpt7YqZET5aWMFfS3aShRW8TTggLG0TwlobJb2cofDJwgoOGCNaWKErchPCqoqOIg0RLbs1CEtGRt6KFtbjV911CSu8SMNebRIfFloLwpKx5Hnt9bvsLilYjBBhXZ8Q6ijSECMsh7CyREzhl7iyCyv4OxQGYTVKHHB9vCxnibxx9VxhhX8EZJAtrOA1uQlhVSOiSEOvRVg9wspB+GvyjXBhLXqG7McLKzz6nJpf2yAsEUOcly6s4Bc9OoSlZkK41fy5B8KqHkLBh7CuHoLJLyxT+I4QVixqijTECGtFWDmW3MNDppMurOBqOQvC0rAmVH+9UdBxmacKq3xOXuCZB/eDFmHVILxIw9YirGcLays+xhV45sEdYURYFWiVTQgRVv0QCj/TcHmztsAzD95IWBFWBfQUaUBYUkIoPMHaGvnCCn87skdYxVFUpAFhCQmhiARr0iCs4K3PGWEpmBBWr6uBsCqHUHiCdT0XKfHMrbqx+3nCUlSkAWEJCaGIBGtrNAgr/P3IEWFJ/pHHUbNIA8KSEUIRSXmC31bkmfvyIkZYQbG3aRxTBIXUE4UVfgYrxVssRYQVfsLHIqyShMeehLJlvJpTM4S6CF/5Roewwu9tQ1gF6WsMlQhLdwj5CGFZJcKKqAJgEVY5dBVpiBQW9bCSMkT4am+0CEvNpzkfKazwpyPjaC8F/OqFUMyKe5JfVkZY7aFzDH+EsCKKNPQKhUWJ5JQsEb5Kso5QaMlsqXN3CCvLYoSQwSTsh/MRioTYGF8lOQ9eSFgRM16PsIoQHnubkOl62N4mn/lKRx8zIUwzKS+lkIhT/CPCkrkYIeUzIU5Oyv4sYbVrjK/SZCCl/mLEKbO9R1gSFyPEfCUkMG3nU/WpmI9qCVYxYcUcM1sRlrROL2hCGPw+0YKw0jAe9RKsYsKKsvKMsHIn9+FT9UFMy4buPbcIq9qCe7KFhGLCMjE3aRFWXsKLNEiquL+LiaYHCas/aiZY5YQVdZT/Dp+BliysiCINkg70BobUirAS+GqvmmAVFFZUJnmDhXfJwtp057yTmOHvMcKK9VWyQ0oF/+j2TGMJFpbOIg3xY6BHWJV8lW6sKPi84xbr1BtLrrDCVyN2Wa8fBN/AgLDq+Crd9lnJAWp7pLHkCiv8+J+0s7yh/SfbkYxnCCtyfzDpQFdSWEPk3RqElYPw4zTi3pYK3shZEFbJFYQMP6lovPrI+7UIKz1qizRccq5FWJG0S7SvUr7GWVRYJvaOZ4RVPzsRWPEnYhWuR1hxTb1G+yrp7mzZGUG0pNcOYdVej5D4plR4lphnGev2whrjdZU23SgrrC52l+HYR4SVNMG/wYSwiXrha20RVnC/9Rd8lfasceE11/h1u8MXTbLa7t7CUlyk4U9i9nFyGOvewnL7BV8lPktSepNou2Dqcmsow5JuR0yksDQXabg4J8xirDsLa9iu6Cr1xmxpYZkr974V2S7spz3lSqFEYUUUaRB6tiSqNNPWI6zTf9tf0lXyga74MZzp0u17k91WW+JDRxKFFf4QpO7Txg2A+4Cwiugq/UBXXFjttQTzWDNmWWb688d1txWW8iINKdYY5va2wkq32GjXq7pKH8/lDzqbq22wjTl6T2vnPcuDFygszVX7vhK7377buwrr2MYUY+3vlZFrpH83osJfn663w5y4Axn3w1iy31VY4Vu1i1hfxX3RM/nygihhHcexTteW6brxenKVJzGvIKw2RVvsyZxl3Ktos/cUVn/owGUf/3yyGNqECes4jn2xkdL6e2XkChmO7tXI7/o9SWvss72Y+vZ2WrPnFeKEtSoR1snm7678jc1dnT11gwtdmC4jrF/SciYoyWmN8+meYI7l5ioTUpusSbY5bhhpzTh9fjLtHYU1KvHV6XCbr/2ZdYzNA4x1PmbsLSesX9bykxs+e8sMbtmSPsAsO8t1VtCmlO2y+8meH0fM4KazYWZvKKxu1yKso9gd7YszAZlWZ6ybffxfLSys//uv95Nzzo3mT0bnJu8zREWehc9KS/4ZpiXeOzeYn83VGzM4N/u1QpMLE5Y/7iasK+97/ZVq+eVXZ+5+ysiNMc65xSdov1rCKsva3klY7ZazrXb/P0W6jB5hWUUhf3aq1uZJGrfL4fNkYWXyVS1hpVp4z8xwN2G1u6KYN3e08EOEla2weS1h6XgI092EtWgK+vPDhUdYD/FVPWGpGBbXmwlrUBX159ui2xHWM3xVUVgqjNXeSlh5Vw4rCkvPWY1HCCvnh64qCktDlA23EtZ03FVYqiaFdxdW1g/z1RTW1SN/wvqMeGFpG6hDTpVo2k24ubDyfki0qrDkD/n+TsLalAnL37RT31tYW97a/3WFJX8d60bCcsedhaXo9m4trDVz5bTKwhJvrP42wuqPewtLwQLDA4Tlc1d6rC2sxspefLC3EdZ6d2G1K8KqTf5K2tWFJfzMu7uLsMbj7sJSY6z7CqvAR2LqC6vp1ht1GqnC0nW0MrLtlRjrrsLaS3xqV4CwmlbwCyPbTYTljwcIS4mxbiosX+RDJRKEJXq+cg9h2eMRwtJhrHsKq9AngGUIqzFiZyz9HYTV7g8Rlgpj3VFYW6kP7QoRltxpobmDsJbjKcJq2hlhlWcu9t1KKcJqmlFmFuBuIKzheI6wFJwgvZ2wtoKfrZQjrKbzCCuLsNrtUcJqhh1hlWQq+VlwQcKSmWQt+oU1Hc8SluyDMncT1mqa5qnCkrgA4dULyxxPE5bwaeGdhLWPTfNgYTWNkTY4ruqFtWkV1pX3PMyGsEosmLTNw4Ul7+VC7cJyWn11sS0cwso+onRNg7Ca1u0IKxn98VBhCd3EuY+wauhKpLCEKUu5sFa9wrq8PGJWhHUvXQkVliBl7ZNyYen11ZFg+8kKXMoKL8kpTlj7VElXYoUlRFmrvb6oWFlYy6OF1TRWVJbl3dDmDqH8xh3bpkFY4mJtSzOMVBbWoFdYqTaeZTh7nW1fJIRyzwVNUxPJwmoaU+1c1j6net2g9i7h/nRhNU037ZVdNZpyIZT1TmomVwqE1TTtuGq2lQBhzVp9lTTchkpplr/oKknC2uqtXOkRVtM0/bSVfSxpc97awlJ70H1JPPTZss7avbP9fR7h6vpGAgqEVdBZ+zJ2dYWR4aT74nWSvkB4O8xF4mhdnOluNObsi+0aIQQcrru+w39pHWLMPUB6l2U5sQ85v7jZBvKOfeOScUFrS5dWRQtrdquCbnFh2DHWzd6/y2395AbT1v+pxmU6vLzNY86EtzPWTd7v7wLdO2d6fFJm8LOTz6GqXD07OElvhyQ9ZVtG0SFpjDGj+5/BGHl9yLhlS52+l3Nxb4wZ/mhiZ4wxHQqpkWpZ57ckpprdkDcJiVtV6O3ko5NJPzsJKcpNaI1b1hSqsobGfDZmcJOPiaXd+8nZMoPNhWXQ1ozOh2Rbq58cQ2imbCUu1lY/l4o0UCMuY52bvH+XdHnv/fwrKy78467v2xgzOudfLUt47xfnRsP4XSzWZv9ujWj9FWqjYZkIzuXwf1I9whNvNHf/3xrTPgGJl+F5wK2G5NonYwAAEBYAICwAAIQFAICwAABhAQAgLAAAhAUACAsAAGEBACAsAEBYAAAICwAAYQEAwgIAQFgAgLAQFgAgLAAAhAUACAthAQDCAgBAWACAsBAWACAsAACEBQAIC2EBAMICAEBYAICwEBYAICwAAIQFAAgLAABhAQAgLABAWAAACAsAAGEBAMICAEBYAAAICwAQFgAAwgIAQFgAgLAAABAWACAshAUACAsAAGEBAMJCWACAsAAAEBYAICyEBQAICwAAYQEAwkJYAICwAAAQFgAgLIQFAAgLAABhAQDCAgBAWAAACAsAEBYAAMICAEBYAICwAAAQFgAAwgIAhAUAgLAAABAWACAsAACEBQAIC2EBAMICAEBYAICwEBYAICwAAIQFAAgLYQEAwgIAQFgAgLAQFgAgLAAAhAUACAthAQDCAgBAWACAsAAAEBYAAMICAIQFAICwAAAQFgAgLAAAhAUAgLAAAGEBACAsAACEBQAICwAgOa2b/H5KVpufXEeDAUBtemOdW7z33y3l/eScMagKtPMP+a2ck3uJK/YAAAAASUVORK5CYII=;" vertex="1" parent="1">
          <mxGeometry x="103.49" y="689" width="153.01" height="70" as="geometry" />
        </mxCell>
        <mxCell id="p6E_UJaJ-BBpeie744uk-3" value="" style="shape=image;verticalLabelPosition=bottom;labelBackgroundColor=#ffffff;verticalAlign=top;aspect=fixed;imageAspect=0;image=data:image/png,iVBORw0KGgoAAAANSUhEUgAABLAAAASwCAMAAADc/0P9AAAAGXRFWHRTb2Z0d2FyZQBBZG9iZSBJbWFnZVJlYWR5ccllPAAAAyJpVFh0WE1MOmNvbS5hZG9iZS54bXAAAAAAADw/eHBhY2tldCBiZWdpbj0i77u/IiBpZD0iVzVNME1wQ2VoaUh6cmVTek5UY3prYzlkIj8+IDx4OnhtcG1ldGEgeG1sbnM6eD0iYWRvYmU6bnM6bWV0YS8iIHg6eG1wdGs9IkFkb2JlIFhNUCBDb3JlIDUuMC1jMDYwIDYxLjEzNDc3NywgMjAxMC8wMi8xMi0xNzozMjowMCAgICAgICAgIj4gPHJkZjpSREYgeG1sbnM6cmRmPSJodHRwOi8vd3d3LnczLm9yZy8xOTk5LzAyLzIyLXJkZi1zeW50YXgtbnMjIj4gPHJkZjpEZXNjcmlwdGlvbiByZGY6YWJvdXQ9IiIgeG1sbnM6eG1wPSJodHRwOi8vbnMuYWRvYmUuY29tL3hhcC8xLjAvIiB4bWxuczp4bXBNTT0iaHR0cDovL25zLmFkb2JlLmNvbS94YXAvMS4wL21tLyIgeG1sbnM6c3RSZWY9Imh0dHA6Ly9ucy5hZG9iZS5jb20veGFwLzEuMC9zVHlwZS9SZXNvdXJjZVJlZiMiIHhtcDpDcmVhdG9yVG9vbD0iQWRvYmUgUGhvdG9zaG9wIENTNSBNYWNpbnRvc2giIHhtcE1NOkluc3RhbmNlSUQ9InhtcC5paWQ6NkVEQTY0NDE2QTZFMTFFM0ExQzNBNjI0M0UxODYxRDUiIHhtcE1NOkRvY3VtZW50SUQ9InhtcC5kaWQ6NkVEQTY0NDI2QTZFMTFFM0ExQzNBNjI0M0UxODYxRDUiPiA8eG1wTU06RGVyaXZlZEZyb20gc3RSZWY6aW5zdGFuY2VJRD0ieG1wLmlpZDo2RURBNjQzRjZBNkUxMUUzQTFDM0E2MjQzRTE4NjFENSIgc3RSZWY6ZG9jdW1lbnRJRD0ieG1wLmRpZDo2RURBNjQ0MDZBNkUxMUUzQTFDM0E2MjQzRTE4NjFENSIvPiA8L3JkZjpEZXNjcmlwdGlvbj4gPC9yZGY6UkRGPiA8L3g6eG1wbWV0YT4gPD94cGFja2V0IGVuZD0iciI/PilpiMEAAAA2UExURf9KAP////9KAP9KAP9KAP9KAP9KAP9KAP9KAP9KAP9KAP9KAP9KAP9KAP9KAP9KAP9KAP9KAPt9SCoAAAARdFJOUwAAECAwQFBgcICPn6+/z9/v/i5wvwAALFxJREFUeNrt3dt628i1qNHCgdSxs97/MXe3KMkkDvvCdsd2Oy3JloCas8Z/sVaSLx1RhcIQCiyCY1e0ZWuGX2LsSumGUkoZPs+fvn/xn1mWz7//XEop81rKOm3xUs3vXI2GQC/XD6WMn1361Rnz1bTDd//p9FmyqZR5McwCln5Hqb4v45drqQ3m37yWqawzuwQsvbah74YyvmaV9+4/+e/5uCxlKvO6zA6HgKWfQzV0Q7eDUz9fP45f5FrndQaXgKUvHbqhG+qA6mdyHT7DNa/zenGwgKV2D3439v0Q4n20vh9LKWWdl2Xa5u1FAUvVXFT1/fiR99I/qu7zfJ3XaVlcbgFLTfR/ffBfYChjKWX5fw4lsJS/3q8hYEkSsCQJWJKAJUnAkgQsSQKWJAFLErAkCViSBCxJwJIkYEkSsCQBS5KAJUnAkgQsSQKWJAFLErAkCViSBCxJwJIkYEkSsCQBS5KAJUnAkgQsSQKWJAFLErAkCViSgCVJwJIkYEkCliQBS5KAJQlYkgQsSQKWJGBJErAkCViSgCVJwJIkYEkCliQBS5KAJQlYkgQsSQKWJGBJErAkCViSgCVJwJIkYEkCliQBSxKwJAlYkgQsScCSJGBJErAkAUuSgCVJwJIELEkCliQBSxKwJAlYkgQsScCSJGBJErAkAUuSgCVJwJIELEkCliQBSxKwJAlYkgQsScCSJGBJApYkAUuSgCUJWJIELEkCliRgSRKwJCkKWGtNv/xkAmRvTXjO1jRtO1dYWzXcjo+fnNEK1tXt9Di7wmqu421XbguxFM2rMv7xeAZWW/U3x1IKsRTPq1K6u8PTAqyWfu3b4fO/IJbCeVVKOQ6Pbd6AbROs65u//yWxFM+rUoY/np6B1chy8Pbwzb8jluJ5VUq5GR8bXBY2CNZ413/374mlgF6Vcvjj1N6ysD2wbq5//E+IpYBeldL/8fwErOTLwbuf/MbEUkCvSinX46mxZWFjYB3ufrozl1iK6FUp439OF2Cl7Zt3B4ml+F6V0t239W5hS2B9/+4gsRTfq9Lau4UNgfXju4PEUgKvGnu3cHTMiaXYc7f/o51P8bcC1pfPDhJL+f7WlnI7tvLZwkbAGu6Gl/9LxFJMr0o5Dqc2HjnTBljH21c9Z4xYiulVKUMjj5xpAqx/bm4nllJ5VUp3N7Sw7b0BsP5tNwOxlMOrUsr10MD+hvxg/ftuBmIpiVdt7G9ID9bVzdsek08sBfWqlP7+KfvszQ7W7dWb/wliKaZXpXS3wyOw4vaW21fEUnSvSilXfe4bWanB+vvJ7cRSG16VcrhP/bT3zGC9cvcVsZTHq1KG+8w7shKD9T+fJUMs5fWqlO6uz/vEmbxg3R1/4x8mlqJ6VUq5GU7AilV/P/zWP08shfWqlOPwkPTWe1Kw3rZblFhK5VUpQ9Y9pDnB+uXb7cRSBq9K6ZPeek8J1m/cbieWMniV9tZ7RrB+63Y7sZTBq5L01ns+sH76zYPEUmtelXLs831rYTqwXvVsUWIpv1eljPfpnkOaDazxvnvP/zliKa5XpQx/PCR7szAZWG99mAyxlNirUrpsD5wZHW5iKe8E7pJN4FRgvdfbg8RSlj+4pdyOmd4sTATWK756kFhqzatSjiXRlxbmAet3Pz1ILKX0KtcnC9OA9a7bGYilPF6VMuR5qF8WsN55OwOxlMerUob7LNsbkoD1sV4RS6G9KqW7P12A1crRJpaiz+Du/jHFDB4dbWLJDAbWdt1cb/FTiKXIXiXZkJUArLvjNj+HWIrsVSnHEl+s+GBt5RWxFNurFFtIo4P1jk+/IpZye5VhC2lwsD5uezuxlM6rUob74GLFBmtjr4il2F7FFys0WB/5cRxiKaFXpQz/Cb3pPTJYH729nVhK51UpXeiP6QQGaxeviKXYXgUXKy5YO3lFLMX2KrZYYcHazStiKbZXpXRxvxY6KliHu26/H04sRfaqlO6uCzqFRwebWDKFgZX4YBNLpjCw4hxsYskUBlacg00smcLAinOwiSVTGFhxDjaxZAoDK87BJpZMYWDFOdjEkikMrDgHm1gyhYEV52ATS6YwsOIcbGLJFAZWnINNLJnCwIpzsIklUxhYcQ42sWQKAyvOwSaWTGFgxTnYxJIpDKzvOt5W/fKIpdBelXK7XID1fq/ytvIXSCyF9qqUuxjPeQ8B1o7PbyeWmvAqyjdTRAArgFfEUmyvoogVAKwQXhFLsb0KIlb9YPUxvCKWYntVSnf/5wKsVrwilmJ7VUp3/1C7WLWD1d8PcWYmsRTZq1KG6sWqHKxQXhFLsb0KIFblYN0MsWYnsRTZq1KGmxOwfrm7Y7T5SSxF9qqUY6larKrBiucVsRTbq9rFqhmsq2PEOUosRfaqlONU8QweHW1iyQyOMoPrBet4G3WeEkuRvar60Q3VgjXexp2pxFJkr2p+dEOtYI1xNrgTS8m8qvhjhZWC1d92oWcrsXgV+uV3t5VuIK0TrGAb3ImlXF7Vu+W9TrBuh/Azlli8ii3W7QOwXtndIcGcJRavQne4q3EDaY1gXR9TzFpi8Sp0x/kZWK853DdJ5i2xeBW6m7W+CVwfWONtmplLLF7FnsBzdZsbqgNrvE80d4nFq9DVtx2rNrCib8AiFq8SVd92rNrAuh9yzV9i8Spyw/2fwPqX7oZsM5hYvAotVmWbG+oC6+aYbw4Ti1eROy5PwPpfx/s64ywmFq8id73UNH9rAmu8yTmPicWryN3UtLmhIrD6+y7pTCYWrwJX1RdC1wNWXq+IxavgYtWzuaEesG6GxLOZWLwKXEVfVlgNWBnfICQWr3JUz1uFtYCV8w1CYvEqR9W8VVgJWFnfICQWr3JUy1uFdYDV33X5ZzWxeBW37u6vKm681wHWXd/CvCYWr+LW3/0FrK9ejW3MbGLxKm7j7SOwPh/xYytzm1i8CvybzhXM3grAGm/bmd3E4lXg2VvBjff9wervW5rfxOJV3Cr4jM7+YLXwBiGxeJWhbv8b77uDdTs2NseJxauw7X/jfW8urq6am+XE4lXcX3nvG+87g9XADndi8SpRe+943xesZN+RQyxeZW/v79HZF6zboc25TixeRW24fWgWrOtDq7OdWLyK2uH6uVGwDjftzndi8SpqN/OlSbD6u5ZnPLF4FbW7HfeP7gjWXdf0nCcWr4K25/7R/cC6GRuf9cTiVdDGm92emLybGsfr5uc9sXgVtOv53BhYg4NOLF7Fnbrz3BZYjd/AIhavQtfd/dkUWK3uGCUWr3I07PQx6H3AOlw54sTiVeiRuOyyG2sXsNregUUsXmVon91Yu4DlBhaxeBW9fXZj7QFW8zuwiMWrBO2yG2sHOw52YBGLVwm6nra/jbU9WL3DTixe5Zi4238b9PZg3fYONLF4laF++2djbQ5Wu8/AIhavsnW43nrebg3W4AYWsXiVputp44/obA3WrR0NxOJVmrrbjfc2bAwWrojFq1xkrZnBWh/ufYqQWLzK0vywrVebLwmJRSxe8SoMWGUhFrF4lcWrZeubPNvvwyIWsXiVxavNf+YOH80hFrF4xaswYBGLWLziVRywiEUsXvEqDljEIhaveBUHLGIRi1e8igMWsYjFK17FAYtYxOIVr+KARSxi8YpXccAiFrF4xas4YBGLWLziVRywiEUsXvEqDljEIhaveBUHLGIRi1e8igMWsYjFK17FAYtYxOIVr+KARSxi8YpXccAiFrF4xas4YBGLWLziVRywiEUsXvEqDljEIhaveBUHLGIRi1e8igMWsYjFK17FAYtYxOIVr+KARSxi8YpXccAiFrF4xas4YBGLWLziVRywiEUsXvEqDljEIhaveBUHLGIRi1e8igMWsYjFK17FAYtYxOIVr+KARSxi8YpXccAiFrF4xas4YBGLWLziVRywiEUsXvEqDljEIhaveBUHLGIRi1e8igMWsYjFK17FAYtYxOIVr+KARSxi8YpXccAiFrF4xas4YBGLWLziVRywiEUsXvEqDljEIhaveBUHLGIRi1e8igMWsYjFK17FAYtYxOIVr+KARSxi8YpXccAiFrF4xas4YBGLWLziVRywiEUsXvEqDljEIhaveBUHLGIRi1e8igMWsYjFK17FAYtYxOIVr+KARSxi8ap5rwKBRSxi8ap1ryKBRSxi8apxr0KBRSxi8aptr2KBRSxi8appr4KBRSxi8aplr6KBRSxi8aphr8KBRSxi8apdr+KBRSxi8apZrwKCRSxi8apVryKCRSxi8apRr0KCRSxi8apNr2KCRSxi8apJr4KCRSxi8apFr6KCRSxi8apBr8KCRSxi8ao9r+KCRSxi8ao5rwKDRSxi8ao1ryKDRSxi8aoxr0KDRSxi8aotr2KDRSxi8aopr4KDRSxi8aolr6KDRSxi8aohr8KDRSxi8aodr+KDRSxi8aoZrxKARSxi8aoVrzKARSxi8aoRr1KARSxi8aoNr3KARSxi8aoJr5KARSxi8aoFr7KARSxi8aoBr9KARazmxeJVA17lAYtYjYvFqxa8SgQWsZoWi1dNeJUJLGI1LBav2vAqFVjEalYsXjXiVS6wiNWoWLxqxatkYBGrSbF41YxX2cAiVoNi8aodr9KBRazmxOJVQ17lA4tYjYnFq5a8SggWsZoSi1dNeZURLGI1JBav2vIqJVjEakYsXjXmVRlXYhGLV7z6xX70o3OFRaz3FotXvLIkJBax/CK8AhaxJF4lB4tY4hWwiCXxCljEknjVMljEEq+ARSyJV8AilsSrlsEilngFLGJJvAIWsSRetQwWscQrYBFL4hWwiCXxqmWwiCVeAYtYEq+ARSyJVy2DRSzxCljEkngFLGJJvGoZLGKJV8AilsQrYBFL4lXLYBFLvAIWsSReAYtYEq9aBotY4hWwiCXxCljEknjVMljEEq+ARSyJV8AilsSrlsEilngFLGJJvAIWsSRetQwWscQrYBFL4hWwiCW17lXbYBFLvAIWsSReAYtY4hWwiCXxCljEkngFLGKJV8AilsQrYBFL4hWwiCVeAYtYEq+ARSyJV8AilngFLGJJvAIWsSReAYtY4hWwiCXxCljEkngFLGKJV8AilsQrYBFL4hWwiCVeAYtYEq+ARSyJV8AilngFLGJJvAIWscQrAYtY4hWwiCXxCljEEq8ELGKJV8AilsQrYBFLvAKWiCVeAYtYEq+ARSzxClgilngFLGJJvAIWscQrYIlY4hWwiCXxCljEEq+AJWKJV8AilsQrYBFLvAIWsYglXgGLWOKVgEUs8QpYxJJ4BSxiiVcCFrHEK2ARS+IVsIglXglYxBKvgEUsfR2bf56BfW9YeAUsYtWg0zqXss6llGV+4b889KWUoStl6BjGK2ARa5vWuczrOr8s1I+n51xKuXzr19B1Qxk6XglYxHr/y6llWZa3MvVvfl2+0vU5XglYxHoHqeZ1WqePO3O/GDh2Yzc04xavgEWs9z6plnleL1v9tOnzJdehG4Y+/9DyCljEerfWeVrmaZcf/RnIcejHxLe3eAUsYr3TrzXP07vdqfr1y62plDL04zBkXCPyCljEepfrqnmq6FSa50sp/Thku9biFbCI9ds4TDutAV8a5HMpZRzGIc9Q8wpYxPqt9VdVF1Y/fYWfSj8OY4bZyitgEes3KJguQcb6XEo5jNHR4hWwiPWL5850uQR7yZdLKYfDGHjMeQUsYv3C654uU9BT53Ip/XgYQ759yCtgEevt68DLNMUe9PO5jOMh3OTlFbCI1cyl1Q/qTs/RLrR4BSxivemMmc5TppE/n8t4DHNHi1fAItYbzpfzZc43+NNUhsMxxPjzCljEemWXKaNWXySYn4fDeOAVsJRCrOl8SX6yzHPpD8eaJzOvgEWsdleCPzkEnz5VvDbkFbCI9ZqzuA2tvlkbXtX4viGvgEWsl1rPqd4TfK1Z4/FY29MdeAUsYr3Q9Onc5oGYpsfjVVXzmlfAItZLr+avhg/F+fx/FS0MeQUsYr3Upe1jcbniFbAUR6xPbR+KT9WAxStgEevl02Ru+0jMcy0HglfAItaLnVs/EucbXgFLUcQCVhVg8QpYxHpFl+bPk+VSwYcLeQUsYr0KLMehArB4BSxiASvKEPAKWMR6VWdnSlnOR14BSxHEcoFVSrnsCxavgEWs17WeHYJSzrd7fgaaV8AilgusKJdYvAIWsYAVBSxeAYtYVoRR1oS8AhaxXGBFucTiFbCI9fomY78rWLwCFrFcYUWRm1fAItZbvHK+fB3/PT6ewytgEcsF1q8NxfZg8QpYxAJWlKHgFbCCi3W78V/52Rnz39Hf+rmjvAJWeLHutn2vyiasbwdj28f48QpY8TuVTcWyqeHbNeGmYPEKWMR66xUdsL5bH2/4/YS8Ahax3nxNYbi/G47tvu6LV5uCddUbjI+77Fk3+1SbC6zvh+Mq449q8Az69CNYN51RyZB77t8Px91mP4pXH9k/wOJVjiWQIfhhQA7GIEPD/D1Y7mUlWQIZgh8GBFgp6n8AywWWK6ycA3JjDDI0Xr4Hyy33FC2zMfi+TTc26OOusAqwrAibuMRyMxxYsiIMYziwMjQAyxWWIVGUun4BVro8qeGfbf7EBn3MJRawXE20MSjAylD/3ZKQV8DKmrvuCcHyRyhFPpfzM7AMQYbG7/6ffaMusPIOi49xJKhzhQUsYClKw3dgKUO2uXM8sVjzP1eGcmZyXFXWz6RKdmLahfXT7MTKcYV1+QYsR9QFVuKBMb0T1H27FvQuIbASD4ydWAkav/m//gKlWBIaAgPTBls2uifIs7D+J1ieiZXsCsuK0HVE6jXh0RikYsuSMMNZaQhYnrnDpdjW4Kw0NIpR9+PCUKHzIV9Dk7oBVVaErQyOeZ7qCss9LMue3IMDrFRXWN4lBJbBUYDGUmzDck4aHMWwarQiTJJ7WAanFbXklMw+PCZ6/A6Xby+zZNGTeHjMcVdYApbh0WYNFzfd0+ThfYYne10BVpps5jY82eu/gmUbliVP+gHyVngesBxLS570A2SS51kSyhVW+gE6GIPoDV/Aghaw0mefWo7G4hYWsKyZFUKrydUVsAyQgtRZElrwNDNEpnkWsBS+1RBYE+Zv+AyWfaMWPMBSiIAFLEOkGPWWhJaErrAUDCxohc9H5V7M+xJploRy9dDCILn1Eb3PN90dR2ABSwH6vK3Bp0LD54byawbJasKSUFXknrtBaoOryZLQFVYjueueYU0ILBcPkiWhNsyuBoPURL2b7pJCgeVxWNFzd+Z1w2Q5YUkoSVuCZUnoCssVlmJwZUkoyZJQ22UblmFq6hpLsbMNyzC1UV9GK8L4+eyzYWoHLFnrGCaFWRJ6k1BSGLAsCaNnV8NrB8p6Ivya0CGUFKVh9LCG8LmZbKAaWhICy3looBQGLEkCllw4GCi9a72d7s5DA6VAYEmSJaE2ymfkDFQ7YHmTMHw2jhqodsDyyRxJloSS9M5eASt8HkLw+qGynggvls8+R8+tZEPVEFj+5kgKA5YhkAQsbZT924YKWHIWGirVB5Z7WJKCNHiXUFKUOktCSXGWhIZAErC0UXa6G6qGwHIPK3q2bxuqhsDyLqEkS0JJApYkYEkSsCQJWJKAJUnAkiRgSQKWJAFLkoAlCViSBCxJApYkYEkSsCQJWJKAJUnAkiRgSQKWJAFLkoAlCVjaK1+Fa6iApTD5KlxDBSxJApYkAUtS9tZxtq6XFKN5XA1C8HpDYKgsCeUsNFQCliQBSxKwVHm2bxsqYClM3uY1VA2BNSNLUowm2xokWRJqu2M4GQMrQmApSG4lvzLbsIAlSduB5R6WCwcDpSCt42wQnIcGSjGyqUFSoCWhIXDhYKAELDkPDZTeG6zFGEiK0eymu6tkA6UoLY6hJH90tF2Dy+RXDZMhyADW4lZk9HpgvWqYDEH4FSGwMuTDhIapHbBkrWOYFGZJKElhwPLpHH91DJNCNJWxeFyDJH915CAaJr33QfTZHEkhWoCVosPFGLw8SIYgBViKnx1GamZJ6KZ7/OwwetVUV/TWMhbfEeUKyyApRJM/O66wDJJCXSev/vREz8dBDVIbK8Iy+iIK56JBUohmdyKTZF/Da9YSSnEYbcSKn1W9C6wGWoCVJDeUDVEzYMnZ6ApLYZaEnq/rbDRECtDnm+62urvCauNPs4K3AivN6egDC0hvBCxT3YLHAClAkwtlFxBWhAp2HGezHVgGSLU3fwHLTSwrHgOk6lu/gGXnqAsIA6TqW4CVJ58m/PfhMQR5wLIkzHAFASwrwkaWhLa6OyOtCFV9X2+6yxlpeBSisZRiMZHkQMrwZO7iQGY6JX1igVeNHMnJ8Uyw6AGWFWHqJn96nJMGR66wZNUDLL1zs2nunKS5orT+9wrLYCTIXvf/PTSGwBWWarvEAparzzausMx0yx5gqfIuZrmzkuUKeCi9TZigfvCh0P9BuQ9aJmj6BizPa0jxxwdYrj3buMKavY3ivLQiVJQrLI/wc14aGFXdCqxsV1i94/izepeeGZqBle5K4mwMLJWztnwDlru1wLIiVJgrLF9N6Mw0LKrfq68HcwFWhrWPm1jAytr63cG0r8GaMGumdoqm76+wDAiwgKV6W4Bl8WNQFBMsbxOmyE2sf2YXVo5+uOm+doYkw/LnkzFwgZWx9fsrrDI7rinOTmABK/MFFrCcndkvOg1BhpYfZrh7HynqfZ3qD3kWVk6w3HVPcokFLBdYGZtcYVkTGhC5wpILCgOid+7Hm+7l0Vr/A7vabNfI0Wb374Zjs5+0eoN2gwus/4JluD+wu+12ufl0zk4rwq4/Ge5Sug/+37XE38Kr7f7OWwLtNhzHQqxMf4F4tUk2NnzbppsaiAUsXr39iAJrr+tNYgGLV28+a56N+V4LZGIBi1dvXQX5Auhv1scb/0BiAYtXbz2kwNrpAotYwOLV289SO1T2A4tYwOLVG89ST/H7uiLcY48HsYDFK5dYcSY3sYDFK2DFWBESC1i8siYMBRaxPhKsrZ/lvvLKJdZGbuz2PQUNibX1GLvCyucVsPa9wHKNBSxeWRNGAotYwIpUf3Pc91R1ibXnipBYwIrl1f3OX94JrLL7g3aIBSxeWRO+/igcd34BxAIWr1xiBbnAIhaweAWsSGARC1i8euXZ2vwzZvoanhV97E/W5sDi1SvEah2sYx2n1/0DsYDFq5fP19afO1oHWGUgFrB49YoTpfFHuw/VHAhiAYtXr7jCaBusq3roJBawePUyWI9NH4uKvp6RWMDi1Yt19+d2vwP6eNVX9GqIBSxevXyNcbi5nFtcF47HfT9FSCxg8eqXXtLV1Xy+tLW/YThUdXFFLGDx6i1nys3N/OnSysnSH49Dna+MWMDi1SvPldtyuTRgVn84HOp9dcQCFq9e2+GQ3axhrFkrYgGLV282a7okvZ81HI5DgFdJLGDx6i2HeryZL5ds7xuOx3GI8UqJBSxevfGcGa6X6ZJmf1Y/HsY+zsslFrB49eaXezzeXaYEi8NxHA/BXjKxgMWrX+hwuFmmyxT35Al2aUUsYPHqty+0ynyZLgFf+uEwDlGnC7GAxatfPnuGUqYpFFqHcYw9Y4kFLF79zvEfS5mmaa7/LOrHYUwwW4kFLF79PlrzNE/13ogfh3EYkkwaYgGLV++yPFznCi+1+nEYhy7TtCEWsHj1HnXjWMoyz7WoNfTjMPT5Jg6xgMWrd/u1+kMp6zwt85574sehT3ZdRSxg8epDr7XKvMzzsjVbh24Y+iH55CEWsHj1/qfVcCilLMu8zOvHuzV2Yzf0fRvTh1jA4tVHrRHHUkpZPvf+7yQO/efamkDEAhavPtatz/9/ncu8rnP5TbqGvgxdN5S8N6qIBSxe7V83/j1nlqWscynrXMrLfg19KWXoShm60trlFLGAxas6Lrp+eGDCvP5TOINFLGDxqs6T0BAQC1i8ErEELF6JWMDilUQsYPFKxAKWeCViAYtXErGAxSsRC1jilYgFLF5JxAIWr0QsYIlXIhaweCURC1i8ErGAJV6JWMDilUQsYPFKxAIWryRiAYtXErGAxSsRC1i8kogFLF5JxAIWr0QsYPFKIhaweCViCVi8ErGAxSuJWMDilYglYPFKxAIWryRiAYtXIpaAxSsRC1i8kogFLF6JWMASr0QsYPFKIhaweCViAYtXBkHEAhavJGIBi1ciFrB4JRELWLySiAUsXolYwOKVRCxg8UoiFrB4JWIBi1cSsYDFK4lYwOKViAUsXknEAhavJGIBi1ciFrB4JRELWLySiAUsXolYwOKVRCxg8UoiFrB4JWIBi1cSsYDFK4lYzYLFKxELWLySiAUsXknEahMsXolYwOKVRCxg8UoiVptg8UrEAhavJGIBi1cSsdoEi1ciFrB4JRELWLySiNUmWLwSsYDFK4lYwOKVRKw2weKViAUsXknEAhavJGK1CRavRCxg8UoiFrB4JRGrTbB4JWIBi1cSsYDFK4lYbYLFKxELWLySiAUsXknEahMsXolYwOKVRCxg8UoiVptg8UrEAhav4vd46xchFrB4FeQ0/5TlPP9UiNWaWDnB4tW/eZXndyFWc2KlBItXbXhFrPbEyggWr1rxiljNiZUQLF614xWxWhMrH1i8askrYjUmVjqweNWWV8RqS6xsYPGqNa+I1ZRYycDiVXteEaslsXKBxasWvSJWQ2KlAotXbXpFrHbEygQWr1r1iljNiJUILF616xWxWhErD1i8atkrYjUiVhqweNW2V8RqQ6wsYPGqda+I1YRYScDiFa+I1YJYOcDiFa+I1YRYKcDiFa+I1YZYGcDiFa+I1YhYCcDiFa+I1YpY8cHiFa+I1YxY4cHiFa+I1Y5Y0cHiFa+I1ZBYwcHiFa+I1ZJYscHiFa+I1ZRYocHiFa+I1ZZYkcHiFa+I1ZhYgcHiFa+I1ZpYccHiFa+I1ZxYYcHiFa+I1Z5YUcHiFa+I1aBYQcHiFa+I1aJYMcHiFa+I1aRYIcHiFa+I1aZYEcHiFa+I1ahYAcHiFa+I1apY8cDiFa+I1axY4cDiFa+I1a5Y0cDiFa+I1bBYwcDiFa+I1bJYscDiFa+I1bRYocDiFa+I1bZYkcDiFa+I1bhYgcDiFa+I1bpYccDiFa+I1bxYYcDiFa+IRawoYPGKV8QiVhSweMUrYhErCli84hWxiBUFLF7xiljEigIWr3hFLGJFAYtXvCIWsaKAxSteEYtYUcDiFa+IRawoYPGKV8QiVhSweMUrYhErCli84hWxiBUFLF7xiljEigIWr3hFLGJFAYtXvCIWsaKAxSteEYtYUcDiFa+IRawoYPGKV8QiVhSweMUrYhErCli84hWxiBUFLF7xiljEigIWr3hFLGJFAYtXvCIWsaKAxSteEYtYUcDiFa+IRawoYPGKV8QiVhSweMUrYhErCli84hWxiBUFLF7xiljEigIWr3hFLGJFAYtXvCIWsaKAxSteEYtYUcDiFa+IRawoYPGKV8QiVhSweMUrYhErCli84hWxiBUFLF7xiljEigIWr3hFLGJFAYtXvCIWsaKAxSteEYtYUcDiFa+IRawoYPGKV8QiVhSweMUrYhErCli84hWxiBUFLF7xiljEigIWr3hFLGJFAYtXvCIWsaKAxSteEYtYUcDiFa+IRawoYPGKV8QiVhSweMUrYhErCli84hWxiBUFLF7xiljEigIWr3hFLGJFAYtXvCIWsaKAxSteEYtYUcDiFa+IlUesNTlYHa94RSxiBQGLV7wiFrHCgLU6xLwiVqZyX2GVx/vOMeYVsbJw9bjxD9warPn5xlHmFbGS9DwnB6s8jweHmVfEStHleesF0/b7sB7/6B1oXhErQcvj5j9y3OGXvHekeUWsDBO3hZ3u5fJ87VDziljhe75s/zP3+PDz0zg62LwiVvCmpx1+6C50nP5jbwOviBW79bTHT90FrOXkNhaviBW7UzsP8CuXT1cOOK+IFXkkLrv82J3uJj2OPlPIK2LFbX7c5+fudfv79IfbWLwiVtT2uYG1I1jz452jzitiRZ26804/eLcNBueh+d1YvCJW0J7Pe/3k/XZENb8bi1fECtouO7D2Bqv13Vi8IlbQdruBtS9Ybe/G4hWxonZa9vvZey7LLk/tPhuLV8SK2tNlxx++632kdp+NxStiRe3yvOdP3/fG92Oj30nBK2JFba8do1WAtbT5iHdeEStq6+Oy68/feWvB9NTgQecVscL2NO378/feC/VpaO5j0LwiVtxfee/Ju/vmzcehsf2jvCJW2KbHvV/B/lqc2vpSCl4RK2x77hitBqzl1NKNd14RK24Py+4voYL1WEs33nlFrMCzd9r/NdRwA6mdG++8Ilbg37SG2VvFHe9Wbrzzilhx2/+GezVgNXLjnVfEittyquJljJUMRgM33nlFrLitp6WK11HJWmzK/8RkXhEr8vSd6ngdtdw8Sv/EZF4RK3D7PRO5UrDKU3/klYhVZeenWl5JPW/PPQ2JHzXDK2IFbq7Gq4rAWh7yPuOdV8QK3PqwVPNaKtoAtTxkfauQV8TiVTqw0n5Gh1fEitzTVNGLqWqL+acu47dS8IpYkXuuav7W9ZmY5yHfW4W8Ilbk6nmDsEKwyindW4W8Ilbk5lNdr6e2Tx0/JPseHV4RK7RXD5W9oNrASvY9OrwiVuT2/o6c+sEqU6bNDbwiVugeptpeUX0Pokq0uYFXxIo9gavzqkKw8mxu4BWxQvdU4QSu8VGfSTY38IpYoTs/V/iiqnw28akkEItXxArd5VTjq6rzYeoJntzAK2KFbn6s8mXVCdYSfjsWr4gV26uHpcrXVenX1UTfjsUrYoUWq74NWHWDFXw7Fq8UWqy1vg1YlYNVptM9r0SsXTrV6lW9YJXLY9TjzSvFFuvxUu1LGx1vXskMjjKDa/6O+E/DlaMtYm3cueYZPFZ97nfxNpDySrHFOp9qfnVVgxVwyzuvFFusur2qHKxwTyDllWKLNT/V/foqByvYE0h5pdhi1brBPQxYoT6kwyvFFqt6r6oHK5JYvFJssdbqvaofrDgfK+SVYosVwKsAYEX5WCGvFFusej9AGAusGGLxSrHFCuFVCLAiiMUrxRYrhlcxwKpfLF4puFinEF4FAav27/7ilYKLVfEDGiKCVffh5pVMYWBFOdy8kikMrCiHm1cyhYEV5XDzSqYwsKIcbl7JFAZWlMPNK5nCwIpyuHklUxhYUQ43r2QKAyvK4eaVTGFgRTncvJIpDKwoh5tXMoWBFeVw80qmMLCiHG5eyRQGVpTDzSuZwsCKcrh5JVMYWK8/3Ott52CLWK1N4aBglfOy4zNIeaXYYq2nS9BRiwrWnk9N5pViixXk+e2pwNpPLF4ptliBvQoM1l5i8UqxxYrsVWSwyvRwu/232PNKscVaToG9Cg1WmR7utxaLV4ot1hzg++izglWWrcXilWKLFdyr4GCV5eFuy9+AV4otVnSvooNVlr/ujrwSsV7V+Sm4V+HBKuVUthKLV4ot1vkUfrDig1VO6xWvRKwWvMoAVnmctzjevFJssVLM4NHx5pXMYGBterznj970ziuFFivux50zgvXhH9PhlUKLFfrjOAnBKtNfdx+4hZRXCi3W/JjEqzRglfkDN73zSqHFCr9dNCFYZXm4+aANWbxSaLHibxfNCFZZPmgLKa8UWqwM268yglXKafqAA84rhRbr6TnTEI3JDvjNe79ZyCtFFmt9yjWBx2QH/L03ZPFKkcVKs50hKVjvvb2BV4os1nyak41PNrDK/J5PyOKVIos1nZZsw5MOrPd8QhavFFmsVG8PpgWrlNN8wys1L1autwcTg1Wel/f4InteKbBY6+M549ikBKucl7ueV2pYrHRvD6YGq0x//e4nC3mlwGIl+vRgE2CV5c/fu/XOKwUWK9OnB9sA6zdvvfNKgcVKebs9O1i/c+udV4orVtLb7enBKufl9tduZPFKccXK87C+1sAq08PtgVdqSqyEu9ubAassD7dv/85CXimuWJ8ec4/JmPyYP85vfeAMrxRWrGwPk6kArG7jn3ee37aH9PHcOVGClP9Ind8m1nKas4/JmP6Yz3+95UZW5jdYlFys6bSmH5D8YJX1dH39+vWg6ysFXRV+empgPMYWDvrz/ModWe5fKapY6+OlheFoAqxyeXjVjixeKapY8+PcxGi0AVaZX/OlhbxSVLHOT2sbg9EIWGV9fPErwHilqGI9NTN3x2aO+kv7G3iloGItp7mZoWgHrBf2N/BKQcVqYTdDi2D96/4GXimoWM/PLQ3E2NRhf57uOl4pkVjraWpqHNoCq0x//vRbC3mlmGI1tRxsEKyy/nVzzSslEev5qbVPZozNHfen6bbnlRKItZ4uzQ1Ce2CVyw/vFvJKIcW6PC7tjUGDYJXl4fqGVwou1tNzi0MwNnngn6e/P1vIK0UUa2ns3cG2wSrT188W8koRxcr7xYPA+vmy8HS57XilkGKt7T5ncmz2yJ/n25FXCijW9Dg3++u3C1aZ/xon81/hxJpbnrbNgfXtRrvZ85AVaL6atk1fYUkCliQBSxKwJAlYkgQsScCSJGBJErAkAUuSgCVJwJIELEkCliQBSxKwJAlYkgQsScCSJGBJErAkAUuSgCVJwJIELEkCliQBSxKwJAlYkgQsScCSJGBJApYkAUuSgCUJWJIELEkCliRgSRKwJAlYkoAlScCSJGBJApYkAUuSgCUJWJIELEkCliRgSRKwJAlYkoAlScCSJGBJApYkAUuSgCUJWJIELEnAkiRgSRKwJAFLkoAlScCSBCxJApYkAUsSsCQJWJIELEnAkiRgSRKwJAFLkoAlScCSBCxJApYkAUsSsCQJWJIELEnAkiRgSRKwJAFLkoAlCViSBCxJApYkYEkSsCQJWJKAJUnAkiRgSQKWJAFL+7X0OX4NRxJYaqA/y9j3Yx+XrWWZlmVyIIGlNvp8sg/90PdDF+h1r/OyzMvsAAJL7TXPl7KWcuiGvq/8emtZlmVeL6V0Dhuw1HSXL1OhG7qhq+yCa53XeZ1Xyz8BSz8sEy9fFordUMayq1zrXKYyrxZ/ApZeWih++Rf9UIaujKUbtvrJa5nKOpfZ+38Clt7YsnxdLZZ+KGUsZejee8ZMpaxzKVOhlICl97Prb7xKKWNXvlx3fVk4vuKW/bJ8Xex9vpYqbkwJWHpjv3Snai7lO8A2/NFqu/8PN4EOWW6s5hIAAAAASUVORK5CYII=;" vertex="1" parent="1">
          <mxGeometry x="240.5" y="600" width="39.5" height="39.5" as="geometry" />
        </mxCell>
        <mxCell id="p6E_UJaJ-BBpeie744uk-5" value="" style="dashed=0;outlineConnect=0;html=1;align=center;labelPosition=center;verticalLabelPosition=bottom;verticalAlign=top;shape=mxgraph.webicons.rss;fillColor=#FDE532;gradientColor=#F4600D" vertex="1" parent="1">
          <mxGeometry x="80.52000000000001" y="598" width="40" height="40" as="geometry" />
        </mxCell>
        <mxCell id="p6E_UJaJ-BBpeie744uk-6" value="" style="shape=mxgraph.bpmn.shape;html=1;verticalLabelPosition=bottom;labelBackgroundColor=#ffffff;verticalAlign=top;align=center;perimeter=ellipsePerimeter;outlineConnect=0;outline=catching;symbol=signal;" vertex="1" parent="1">
          <mxGeometry x="440" y="922" width="40" height="40" as="geometry" />
        </mxCell>
        <mxCell id="p6E_UJaJ-BBpeie744uk-9" value="" style="shape=image;verticalLabelPosition=bottom;labelBackgroundColor=#ffffff;verticalAlign=top;aspect=fixed;imageAspect=0;image=https://camunda.com/img/camunda-logo-social-update.jpg;" vertex="1" parent="1">
          <mxGeometry x="443.81" y="1003.25" width="196.19" height="103" as="geometry" />
        </mxCell>
        <mxCell id="p6E_UJaJ-BBpeie744uk-12" value="" style="shape=image;verticalLabelPosition=bottom;labelBackgroundColor=#ffffff;verticalAlign=top;aspect=fixed;imageAspect=0;image=https://uit.stanford.edu/sites/default/files/images/2019/06/14/7.png;" vertex="1" parent="1">
          <mxGeometry x="953.5" y="917" width="48" height="48" as="geometry" />
        </mxCell>
        <mxCell id="p6E_UJaJ-BBpeie744uk-13" value="Blog Writer" style="shape=umlActor;verticalLabelPosition=bottom;verticalAlign=top;html=1;" vertex="1" parent="1">
          <mxGeometry x="150" y="1162.5" width="106.5" height="213" as="geometry" />
        </mxCell>
        <mxCell id="p6E_UJaJ-BBpeie744uk-16" value="" style="shape=image;verticalLabelPosition=bottom;labelBackgroundColor=#ffffff;verticalAlign=top;aspect=fixed;imageAspect=0;image=https://m3a8r4f3.stackpathcdn.com/wp-content/uploads/2018/06/google-data-studio.png;" vertex="1" parent="1">
          <mxGeometry x="789.5" y="1192" width="212" height="132.5" as="geometry" />
        </mxCell>
        <mxCell id="p6E_UJaJ-BBpeie744uk-19" value="" style="shape=image;verticalLabelPosition=bottom;labelBackgroundColor=#ffffff;verticalAlign=top;aspect=fixed;imageAspect=0;image=https://miro.medium.com/max/4000/1*9M4VJPbmhAfy0htNslpyTw.png;" vertex="1" parent="1">
          <mxGeometry x="73.69" y="974.5" width="195.61" height="120" as="geometry" />
        </mxCell>
        <mxCell id="p6E_UJaJ-BBpeie744uk-20" value="" style="dashed=0;outlineConnect=0;html=1;align=center;labelPosition=center;verticalLabelPosition=bottom;verticalAlign=top;shape=mxgraph.webicons.rss;fillColor=#FDE532;gradientColor=#F4600D" vertex="1" parent="1">
          <mxGeometry x="240" y="921" width="40" height="40" as="geometry" />
        </mxCell>
        <mxCell id="p6E_UJaJ-BBpeie744uk-21" value="Slack Reader" style="shape=umlActor;verticalLabelPosition=bottom;verticalAlign=top;html=1;" vertex="1" parent="1">
          <mxGeometry x="483.09000000000003" y="1176.5" width="106.5" height="213" as="geometry" />
        </mxCell>
        <mxCell id="p6E_UJaJ-BBpeie744uk-27" value="" style="shape=image;verticalLabelPosition=bottom;labelBackgroundColor=#ffffff;verticalAlign=top;aspect=fixed;imageAspect=0;image=data:image/png,iVBORw0KGgoAAAANSUhEUgAAA1wAAACyCAYAAABWQ86rAAAgAElEQVR4Ae2d6xMdxXmn86ckVfkYpyr5trvZTT6k4qSyVMoVe5Oi4nIIrsIue73YRksRLuESCwSOESBhBBaYO+JicQk2YGTAtrgF2yAkdL+i+9WSMOKi1Gz9Dtu4ac283T0zfc6Zc54Pp2bOzDk9PW8/09O/t7vf/p3jv/nPig82gAEYgAEYgAEYgAEYgAEYgIH+GfgdjNq/UbEpNoUBGIABGIABGIABGIABGBADCC56+OjhhAEYgAEYgAEYgAEYgAEYKMQAgquQYfFo4NGAARiAARiAARiAARiAARhAcCG48GbAAAzAAAzAAAzAAAzAAAwUYgDBVciweDPwZsAADMAADMAADMAADMAADCC4EFx4M2AABmAABmAABmAABmAABgoxgOAqZFi8GXgzYAAGYAAGYAAGYAAGYAAGEFwILrwZMAADMAADMAADMAADMAADhRhAcBUyLN4MvBkwAAMwAAMwAAMwAAMwAAMILgQX3gwYgAEYgAEYgAEYgAEYgIFCDCC4ChkWbwbeDBiAARiAARiAARiAARiAAQQXggtvBgzAAAzAAAzAAAzAAAzAQCEGEFyFDIs3A28GDMAADMAADMAADMAADMAAggvBhTcDBmAABmAABmAABmAABmCgEAMIrkKGxZuBNwMGYAAGYAAGYAAGYAAGYADBheDCmwEDMAADMAADMAADMAADMFCIAQRXIcPizcCbAQMwAAMwAAMwAAMwAAMwgOBCcOHNgAEYgAEYgAEYgAEYgAEYKMQAgquQYfFm4M2AARiAARiAARiAARiAARhAcCG48GbAAAzAAAzAAAzAAAzAAAwUYgDBVciweDPwZsAADMAADMAADMAADMAADCC4EFx4M2AABmAABmAABmAABmAABgoxgOAqZFi8GXgzYAAGYAAGYAAGYAAGYAAGEFwILrwZMAADMAADMAADMAADMAADhRhAcBUyLN4MvBkwAAMwAAMwAAMwAAMwAAMILgQX3gwYgAEYgAEYgAEYgAEYgIFCDCC4ChkWbwbeDBiAARiAARiAARiAARiAAQQXggtvBgzAAAzAAAzAAAzAAAzAQCEGEFyFDIs3A28GDMAADMAADMAADMAADMAAggvBhTcDBmAABmAABmAABmAABmCgEAMIrkKGxZuBNwMGYAAGYAAGYAAGYAAGYADBheDCmwEDMAADMAADMAADMAADMFCIAQRXIcPizcCbAQMwAAMwAAMwAAMwAAMwgOBCcOHNgAEYgAEYgAEYgAEYgAEYKMQAgquQYfFm4M2AARiAARiAARiAARiAARhAcCG48GbAAAzAAAzAAAzAAAzAAAwUYgDBVciweDPwZsAADMAADMAADMAADMAADCC4EFx4M2AABmAABmAABmAABmAABgoxgOAqZFi8GXgzYAAGYAAGYAAGYAAGYAAGEFwILrwZMAADMAADMAADMAADMAADhRhAcBUyLN4MvBkwAAMwAAMwAAMwAAMwAAMILgQX3gwYgAEYgAEYgAEYgAEYgIFCDCC4ChkWbwbeDBiAARiAARiAARiAARiAAQQXggtvBgzAAAzAAAzAAAzAAAzAQCEGEFyFDIs3A28GDMAADMAADMAADMAADMAAggvBhTcDBmAABmAABmAABmAABmCgEAMIrkKGxZuBNwMGYAAGYAAGYAAGYAAGYADBheDCmwEDMAADMAADMAADMAADMFCIAQRXIcPizcCbAQMwAAMwAAMwAAMwAAMwgOBCcOHNgAEYgAEYgAEYgAEYgAEYKMQAgquQYfFm4M2AARiAARiAARiAARiAARhAcCG48GbAAAzAAAzAAAzAAAzAAAwUYgDBVciweDPwZsAADMAADMAADMAADMAADCC4EFx4M2AABmAABmAABmAABmAABgoxgOAqZFi8GXgzYAAGYAAGYAAGYAAGYAAGEFwILrwZMAADMAADMAADMAADMAADhRhAcBUyLN4MvBnzzsDGnaeqR54/VC26e1d10Xe3VV+5blP1+SvWV3/7z2tH22/csKVaeOfO6rbH9lU/eOFw9YuN71DRUx/BQEEGjp48Xe0/+mH0c+TE6akqhwMJedZv5r3O5f5pd8DA9DKA4Cr4cgP86QWfsilTNi+vO1FduHRb9ef/+/Xqv3/5V9mfv75gTfVv971dvbHlNzSeqJtgoGcGLl++I+mZlDNkWurIDTtPJeVZ9c1b29+dmnxPi/3IR5l3HXbFrrkMILh6fqHlFgC/56GdBQZWvnC4+twl65IbRili7DMXra0e+skhGlDUUTDQEwMX37I9+RnddeD9qbD7dfe+nZxnHDW8T2fhfco9zCbHCK6eXmQ8ILP5gFCudrlu2/te9aVFm5IbRClCK/yN0t+2572paPzBg80D9plu++QIrlsf3TfxZ+7oidNZveUIrunmj/qB8plnBhBcCK6Jv1Tn+QEc8r0/9fLR6s++0m7oYCiqYt91nRXPHoRV6isY6MBAjuA6a8GbE7f14z8/kuXMQXDRoB/yO5W8zza/CK4OLy8ejtl+OCjf5vJ98sW8hlBMUKWe1/wuyqW5XLDN+G2jHti/u3Rd7Wfxit1TxWuO4NIz+dPXj080/+d8awOCizbKRBmkTh1/nTqrNh+L4Prd3/v9qq/Pp/7wj6v1m3bNzAO49Jbbe7PNrELKfU1Xhfejl45mNYJCMfUX57/R6f8PrmJeF8/E9DwTId/+d0XmnKayyhVckwyesX7Hu9n1BD1c0/NcTBP35AUupoGBwQkuCbdVz780VS+xLgX52c+djeDCgzcYnnfsey9rGOF512wchYZ/ae2J0TysX7/zUcWvreZ/rV5zfDRU8Ko7dmY1ribtee/yzPPf2Xr5+wIr3B+64NL9TCp4xrX37MqqE5RXBNdsPVvUlZTnLDGA4JpwYx/BRYUypArl/Ou3JDWCvnztpurV9SezhKQCYyikfNhorfuuOV3b9xJIY0jszGpe6/h0x2ZBcC17dG/Wc9xHOWsdsDZLSyC4eJ/2wR9pwFEJBhBcCK6xv0xLgEya5StI9Ua5hqS1febVY52Y0gLIKSHmFS6aci9f7tjYtrH1LMyC4NLaeK5nelwsPPazdnNEEVw2q+MqP65DOcDAmQwguBBcNFonzMBQKqZLb42v4bNsZT/e8K174kMX1ct14OiH8Au/E2Vg1gWX7u/5X/16rDb+x6vygmW4MkBwndnIG8r7hXxSdrPOAIJrwo0VhhRSyQyhkjl68nR07tbXF2/ptVH26E8PR3vUlj+xv9drDqEsyON01RmusV+3nYUeLt1X38+2xfBb2/ODZTjbI7im69mwyplzlNW8MTBRwfUHn/qjSoIj53POuedVu/d3G7I0TYW88vGns+5fNmuK+DhN90VeZqsyfW3Dyaj4Wbf93d7Fz4IlW83rargTrM0Wa0MrT9fYr9vOiuDSvY0reMaiFsEynO0RXNQFQ6s/yO/8MDtRwSWhBWx5sFk9Ytgyz5bYK91eT75oh4LX8L4S8zzWbYt7uxlWmF6OMN+/rVxjv247S4Krr+HCFoNtg2U42yO4+ufbKi/OYW8YSGcAwTXhIYW5sCK40uHOtS2/b7btXT86YPY0feHK9UWcJxJxrjHVtH198zu9XlvDJzfsPFU9+x/Hqjue3F8tvGtXpRDVtz22r3r4uUPVT37x6+rtg+/3es1c9tQwVR41t+aBZw9Wix/YXf3r93dWWmj3+z/cX6184XC1ZutvJppH3dOxk6erF988MbLbzY/sHeVRwU5ue3xfpeAoufdd9/uDxz4chQPXYtwSBbLDd+7fPSo7DUtVsJdDx0/3cq266zdxqeNDElx/f9lb5rM2juAZsWHEWmbCsncpwSXG1Mv/9CvHqvueOVjd9NCej1m+ZeXe6p6nD1QKFjSuXsA6DuuOqf7UcyaHmepwLRw/qice+Oj5UD2xadepYs9GXZ78Y5vfPlX97I3jo/rqe4/vG9Wz37pzZ3XDit2Vhos/9JND1S83vTOqR/z/jXNfNnzlrZPV4z8/Ut3+7/sr1V8L79xZqT5b8ezB0XtCy6WMM08p15p0vZiSR/1GDlO9U+/78UfvMS0RI071TImP1HSG8DsEF4JrpoAewkM3xDzqBWg1dBTOvdR9/d2l68xrP7n6SOdr66WqxtTnr1hvXsu3wT9cvr66+Qd7x/ZSkGjQCz4lgqPLp0Jra/Faiceu5aMGx9/+89rGj5++1li7/v7dVWyR6/0tg56oMaEG5FkL3kwuL4mfe58+WOVe84nV9n07WzdtLZs998vxBqOwFj7WUg6yUdN96Hjp4BmxYBmx6IV9Cq59Rz6ofvDC4Sp1KQxnNwlTNRrX9uTw2LjzVOMzJ7bqeJZAkCiIPX8uz3/59TUjx9I4hIMEoOqGv7lwrcmay5u2GkFxzrc2jATY4YLOE78O09qRV96+M3l5grP/5a3q1kf3VaENDxz7sLH89A7Ru8e/bpf9cdaLdfmUY7Kpvrtk2fZP3Kc4uHjZdnNuuN51ddcZ6jEEF4JrpoAe6oM47fmW99F/AYb7EkWl7sFqJCofXdYJOnri9OglnvPyD+9d3+X1rGv49GETrU8mj1+bdYn8vOpFqF6gtnmSJ99PL9xXz6DSlqdfDaTwfN33XJvtOfRBteThPZ1sITvKm5ra0BFfdXnv45h6J9uWR5v/Wc/SuQs3joS5dV8lg2fEgmXIGRKbS9qH4Np7+INKvSyWHVLPffHqjZ2F1yvr7Pmzcm44FlRXxERzLO/qHU59Ntx1U7ZyLnzmonSR1ZRPPb8SNiXyqPuQYMoV2X5eVfepd069+0pv8+5TJkuu3kyxYdNvJlEv1uVFvPu28PclLvUflZt6B/1zTfsIrhYCpSnIA3O48j0bDCnMt1ldxcCxPDvK09tUKbrj8q6VsKuGG1yxfEfjRw2SNtfV/DB5o13+u27VEFj1WveeJP9eYkOs2uT5gpu2tgqnHxNc8uQueWhPlj1zBNdTLx9NFnIpdpEAVe+Bb++6/XkRXBI0agypt8Oy3879ZYbTLrp7l3ld1UEanmrlrYvg0r1LAHd1bNTlT72xdWylHIsJLhesSEOwUh0ddXn0j0m06XlOyV/sNxqy+LXvbDbLzb926r547XvImRjry4aqXyS21JNj3VNXwTWperGu3C3BJaeshsJ/aZHdi+7bCsGF4OqlEqqDNeUYgitPKKTYlN/EbZqy6LF6DYZiS91PXy9W/wWhfQ1B68MOueIlzIf1XUPx1KOQk8+Y4IrN86vLT6rg0ly6uv93PaYhV29Ghn7Ni+ByvdQaJmvZVRzkcJPy21iwDIkgDSXTkEYrb20Fl3q6v/rt/kWBn1dFX0yxRfibmOBSg/7GB+0h334+UvfVMA7zkvv9p68fN8srNS9NvxMXKU6TlHyvWHWo97zKoScR35R/He8iuCZZL9bZ1BJc6t1MWcvTtxWCC8HVuRKqAzX1GIIrLg5Sbcnv0m2pxk6KQGnb2zTOskjprfMr/Tb7Cq7R9p7U+NScuDbXzfmPejL84Uix/MYEV8613W9jgku9Dn0N73LXDLdqtFmBV+ZFcKlBJAZ27H/fZK9E8AwFbwjLxf/uxIqGq/rHw/02gktiq+swvDAfTd8VeCf2nIXnY4IrFkikKS8px+9+qn3PXGmx5fIvHsVsaLec7zH+3LVKbNsIrmmoF+vsawmuNrZDcCG4Oj3YdZDmHENwpYuEHLvy27hdNX8jVmmq8bp1z2/nFEybXdULF7uHvs67oT65NmgjtiSGZfvcvKuRrTkrKXmchOC6cKm9Dlvu/Tb9XnP4mibja75I0/+6Hp+mOVxquDoOYs9638E+YsEy1u/4qDdWcxAtm+cKLjVc2/RsqYdYQ8ZSnFBhfl/fkhc9NCa4wvT7/K77S60fHDvaKuBEbj5Uf6mBLQ5z/6s5V/71c/YVBTH3en3+vo3gmoZ6sc7GCC67HUXQjBYCsg60cR1DcNlAj6sc5vE6amSlvGj04tS48mmzkeYSpDSQ9Bt51BWVzw1XUa+TXswadhJbjNnZSFGr1KDLsYOiCbr/W1vlURG05EVW3tw1FK5exxR2PVWAKR33f2vbh+AK82TNE9HQTMsG7pwaaAqkIdu5+UWKMLf6zROjEPmarO1+a20V+KTu/jUhXWk1faw01Shv+p+Oj3sNOStohoZXuvuP9U50aeC6a7itHBOWDRWdzv021judK7hSezbErZ6pLbvfO+OZVih42SsmGt09+vfj7svathVcciIo2JF6BWVj5f3na46PAsZoTqzLT2yrZSas/IXnFCwiNQiRImPWPQfqddQcW/UIptTZugelE+Yl9l15jUXB9e2j3kSFqv/V5ndGvWqao6Xr6r2gcvV/m7qfK7impV6ss21XwaWy9t8RLtBG3bWGeAzBheDKrqSGCDp5zmv4N9lLL8jUF4leTq+ubxfQoun6XY4rClss73r5an2r2HV+9FJaAAeNsY+l5c6r8R0LWKD8y7uZst6PhELqmPkUr3sbwXXZbdtH3m4nhD6+12MfVhJF7nu43X3wg0+8eJvKTb2BMdEi0at1k5rS8I9rPkyYl9h3///hvoaqxf4/zvOW4FJDx89LLOR+WKb+f3P2Y8Ey/DmRsXk2OYJLPZopz5t6OFMDAknA+Q3GkAf3/eV16eIgV3BJ7MhZFHP2KGx9yjIYSi+nPBW8w91n01bOqNRnbfve96pv3hjv6VZjPyef+q2iCTbl0T+uhr/rZbWuIZvmBgjJEVzTXi/mCi45eVQ36/0T9qTqe8n1E61yLHVucIJr/aZd1aLrbvj4s+r5l7IfsiZj3nXvQx+nq2voWk2/zT0ept023/Rw9SMccsuP339kd710Uj2O7oUlz68805OsPGMTl5VX9XDkvPwUglkNB3efdVs16GINH8eWeprq0vCPyWPtfp+6jQUaUPoS0rH0cgSX1iEKX6Cx9P3zsSEzYlCNW/8/sX0Nc4o1hnXdWDrheb98wv0hCS7Z1L+32FIQ4sH/fZt9iR6rTHTOfyY1pyi0sf89R3BpEVv/v3X76s3IvS+tgVWXln+sqTe17lo5gkuBLlLFoa6luinFiZY6R0o9U1Z5ygbq9bWcLXU20LGUfOakK0dNyrtMC0Wn1uEu76kOHtnD59v9v2k77fVijuDSAuI5995kkyEdH5zgklDxw8xfc93i7AqxqYBCMdNWFNWlH6bdNt9hOr4t6q7LMQRa3wykNOD9xoXb18tNHnYNN8xpFHTNvzzxsRfr5ct3tKpHNF/N3V/TNmXR4diwKqWtxafb2kJDc5ry546rR8xKP1VwtQkM4F9XywC4PDVt5cH3/5O6r0Wym9J0x2N2CK/l/le3HZLgUv79e5M3ve6e3DEN5cxtiPrpaz82pE/rz/n/ifVI5AiuWE+Ehqn6187ZX3iXHeI+p9coVXCpMd6mAauhe65Mm7apQ8TVU9GUho6rRyNVvIX2Vl0bq8e1MHb4v6bvKU44DR9vy7gWWbds4c6lltkQ6sUUwaUy1BDcpnKZ5eMILm9IYShmEFyIlVl++Lvcm15s7oXRdqsGjxpcsSFhXfKp/y5/whYbagTkeEbD/Cx+wA7JrPsM/xN+j4WA12Tyti9+XUv/jb0MYwEcUgSXbBHeW+73WMS4ruGqv3ClPacrZxio7s3if2iCK2Qs5lHvGjwjVhaaI+PzE2MwR3DFgjPkCm8/n5qbGBMH6g3y/9O0nyK4NBTaLbTblI51XA4ni+Pr7097rhWd1UpHEUetfMTOLX3EHhocCnQrvZTRCV1HZcSCz8hWqYJrCPVi7B2j+5XD1iqXWT6H4EJwzS38s/xgj+PeNHQmZQ6E9QJ25yRKNOwwFia8zX39/WX2sD9/jkib9CUYJdrcvdRtYy9uDbOp+587pkZXm7z5/9GkeZde3fYbN9iRvmKNXbHQtedSwxDr8uYf67rYaWwhUs1r8e0W2/fzFu4PTXCFQUxi0ea6BM+I9azUCevYelOpgkviJCwr/7uex1i5x87H5kelcpwiuKxlDWL51PlYuH2NTEhJJzaULrWnrOlasdEVF313W1I+tfaeX951+1p0vikfqccl2mPvhhTBNZR6MSa4JEBTbTeLv5tawdU0f6qPIYW79x+rLXR6uOjRmsWHvOQ9KSqeGl11L6y2xzRBumsDwt2zIhNa+dALwv22yzYWOtwSTFqA2MqjPLFd8ub/1wqE4Ba+9X/v78cEVx8NlAcji49qUV4/T2331Zi3bB729FjXsdIZmuCq69XR0gHWPbYdInZ1ZNjd06+c+Z7W3CcrL6mCS+Wp4W96Lus+KQESLCZ0TgFjrLy+mBhVLya4uvYaKa8K9mDlNaWXXumInzp7umMxx1PMpjv22U6j1AiQirxo3W/OkM9YnmPvxxTBNZR6MSa45PSL2WuWz0+l4JIg0tyk//onf1rdvOyOTwSvsASX/nf3fQ9X//TFL1Wf+sM/ri3YV3+xdpT2//n6/60efeKZT/zGElx+2spXHRQSiZ/9X2eP8hCKujDtcA6X7kt5akrbXS9MhzlciETHxiS3Co2bE17Xetm5c5okrRd1l/uKiQRN3O2SvvtvLIz2nUZo5Zsf2Wu+/O/6UfvFR13+3NZqBGoIlPtd3TZmy5RIh3Xp+sdiL+w+GsK63uIV9jDQNVvT10pyvNZthya4FBHOLw/ti7+6e3PH2ojgWLCMpmAzsblROYIrvM++v8eCcqQOrYoJrtwhsHX3qfJw5Vm31dDPuv9N4pg1VDM1jHhsrUPVD33dWx+Cayj1opXP2PulL3tPczpTKbgU0c8XEtr/9F+dNRJfEmD+OQkXCSeJFYks/9zKx58+46G5+NIrP/Eb/ceJr1DMSAQpbQk4P13tS7iFBbv0lts/8TuXrn4Xpq18K41LLrtqJLL89Ovy7a4VpuP/z/2GLSJsEgyoV0DD82JDaepe6NYxeS3lgW1zT5r7ZKXdVwNenl3rOnrBN+U/No+lr/Dbur6CTTTlU0NfrJ6d0oIrFqRB+WuyYe7x2AK6Cj+emmaTPXV8aILLrTvn37vmN1r32CZ4Rmw9LQ1N8/Pg9mNzjaZJcK141g6aME2CS/a1hr7Fer9d+Yxjaw1jTxVc6sGymM5xuMTuuavgGlK9iOCy255TKbgkrnwh0Xb/a+cvOKPSVg9S2/T8/0m4hQ9aU74l6kIx6KcV7tfl210LwWUD7ezEdrJ20pDAS5Ztj04ct1564bncEM0SD2Ea/vc+G/DirW2DxZq833ceuzwXpQXX6jXHzfK64Kb8kO1N9yth4bMQ7l97T/qSIOF//e9DE1ya21Jns4uX2cPjFEGt7n9Nx2JOhrqeNqVlrSMmuyO42tf7Vj00S4JLc279ZzTc77snpqvgGlK9iOCyn7+pFFwSM//lv/2PzsIoFC4a5nfOued1TlcCKRRcSjsUTm2/S1Q1vagQXDbQTXbj+GTspjH7WiR4wZKtvYgvTYoOJ/Y3la3mloQvU/97nw145cFaJ0aNmaZ8+nkK9+sCBzSlU/p4acGlOWDh/fvfFWa5r3uUGLeGJslZkHotP4/h/tAEV9NitK9tsNeWSp3jI5vGgmVYaemZDW3sfy8luDTPRr0eis6qIZbLVu6tFBFP682p163uExtiPW09XJMQXJoDLDsoQqqiyapnUwth19nTHfPLO9xP6eGK8ZcbNCdWT3QVXEOqFxFcdjtrKgWXA1hD+iSa/uBTf5QsZiSoNCQxnEPl0tRW5/SbXPEVS7ttuhJmEpgScXVDFf28I7hsoH1bsT9dtjpy4vQoGpYas7HFMcMXqf9dQwxTQiD/ctM7ZuPMT7P0vu63jkdFZbSuvSijp6Uu/T6PlRZcsfD9lp36PpcTTcu69tAEl6ISNjETExCpwTNi87Cs3rJY47VPwaUorApIEYsgapW/dW4eBZeGXktcyTlljQiw7GadSxFcsYWpJeyanoE2x2PMxoJmDKleRHDZba6pFlw+3JrX1NRjJLESE1l+Wv6+E0l9p+3StUSdhGSKyPLzi+CygfZtxf702ko9DIrSpZeb1dPQ9HKVZzlWvrFQx01plzpel9/YgscKqFH3v0kcKy24JC5L2T43XTUcUm1spT00wWUtSHrfj+05SSmsKjiD9byrl8WaR2j1Iqscugou5W/Zo3srq7fHKu+cc/MkuNRz+tVvby7+fKcIrtgCwoo4m/rsp/yuq+AaUr2I4LLbXIMRXGF0Ql8gaX5UUxj5lAciDHbhp605XxJPKenU/cZFRfTTdPuxiIR16SG4bKDrbMax6baZhh1qEn3Mgx42ZmIL9SoCYfifSX6vC4n8szfseUsKXzwt/JYWXLHhYuMsO63dlmp3K19DE1zP/kfzu05zXyyx1BRZ0LdjLFiGhur5vw/3z1240XymuwiuJ188Ohah5XiZB8GlgD8a0eDuufQ2RXBZgYOUv3ue7i8qrPjtKriGVC8iuOy21iAElwRPLOiEAlaElXPKd0sQOWGkKIUpadX9pimQhks7nAtWl4Z/DMFlA+3biv3h2Urex1hkQffSVuNPjcCmcl7y0J6xvehdnqytor2FeY31wuUGCgnT7/N7acGloaKW/cZ5LmfhWytfQxNcdWtf+QxdsXyHWUbWcEClE4tguuvA+2c8I/71//Eqm5G2gkvzsaxyLHFu1gWXlonoMnS8jc1TBJcYt9J+5Pn0CKU+m037XQXXkOpFBJfd5hqE4NLaVk6gaKuheHW9UrniRUIuFERNaet6TQ9U03Hlx8+39j/9l//zjGNWGPgwbQSXDXRoL74Pz14a0x5bm8q9MK1ACtffb6+15NIY17aN4FKPwLQwXFpwxRrj4yonXQfBVV9vqBFtlYMV8CK2uO43btgSZb2E4Lohsiabdb9dzs2y4NJwcas3tIvdrP+mCC45saw0tH5an3VuV8E1pHoRwVVfbzqepl5wab2qULQ4gWKdczdobbVOVpi2hi7qPwrWEZ6LBbTwr4Um5u4AABlCSURBVFU358wJwlB05QyJRHDZQPtlwP6wbfWdBMFkNYxji9taL90S5+oEV2xIYd/DW7o8E6UFVyxUeIkyaUrT4iq0YVMaOj5rPVy6dzVqrXvese/MxZP1v4V37jT/p2chtG34vW/BtfSR9F5wBXlQlFRFKVz12rFK8y8VKESBbxTER3PP/I+GPFt2mlXBJZvkiC0996qr5VxSQIute96rtPaUhmD79nT7VrCNFMGlqLlWuUyb4BpSvYjgsttcUy246uZthaHeQwGSKl7qFleWgHMV/Kj3K+iNSp3Ppflk4RBIiSyXtoRbGHkxdUhkeL++KHTps7Whxz7DsI9esOddY8/Z0IuzaZHK5U/sN1+sWtNHjadxfNT40v2E7Gm9Muvl3/cE7vD6Od9LC67YpPpxlJO7hjWXKbSZVX6zKLgefs7uIZCICW2kxrPVCNdCtOF/6r73Kbi05phVdu6ceigkBOryYx0b2sLHVqCQnHW41MvpbNe01Xw/Rd+TWLVsWHeu68LHCgzTlC8dv/qu9DX46vIXHuvawzWkehHBdeY73udhqgVXuBaXREsYwELiJhQvigzo32Tdfpi2hEz4uzph5Hqpwt/63+uGQIa9YzHB56fn7yO4bKB9W7E/fFspjLD1ctS5p14+esazq7KPNQxj81XGwY+8udb9aVjkOPKRco3Sgiu2qK01Xy8l/6V+Y5XfLAqumHiqC56heTGWneQcSSmfPgXXZbfZwRw0/yg2J83K8zwKrliPvRhQEIguz3JXwaWIiRaLOUtCWOXvznUVXEOqFxFcdptrqgWXxJULqy5RFYoWB7Q/fE+/D0WZ+52/lVBzQ/uUdtN//Lli6l1r+p2ftv8f9UBJXPnn3b4/bFF5cMMZ3fm6LYLLBrrOZhxrbzNNYtcLQ17Luo8Wqixt31gQjTuerG+sqZfCerFOw3A9NTysPF64dGtx+6aWX2nBdW0kLLwWLE3N6zh/Z5XfLAou2Ta2lpaG3PllEJuHIseK//um/b4EV4ojR+v4NeUj5fg8Cq5Lb7VF7Ddv7F6fdRVcG3eeMuvcnAilKRx0FVxDqhcRXHZba6oFl4NZAqZJtLjfaDhg7Dfut/5W/3Nzwvzj/r6EUew3/u+1L3GoXjSrt03izf0mRcgpXQSXDXRYDnzvZi8N17MalDlzXdqWRSys8KK764eAvLr+pJl3zcdom6c+/2cNtfrMRWlDrfrMT1NapQWX1j+yWHtwVb/Rw5ruM/e4ledZFVyx9eP84BmxoXsXLk1/DvsSXLHFZOuGReZyMW+CS8GOrLpM57r0bDn7dxVcmm9nPbOaI+au1ce2q+AaUr2I4LLbW4MQXH1AP4k0JKJiQip3/TAElw30JMp5lq+p4UPWy0nDbkrf/22P7zPz0NQLFOs96vvF2tYOsbC/Woy1bdp9/q+04Ir1SC5Y0t073qc9XFrW8zGrgkv3HhM/2/d+FDzjW5FgGS+vO5HMd+yaqWHhJfKsclPgB1e+bbfzJrhiIvzK2+OL1afYuqvg0jXUi2WVf2qPa0p+uwquIdWLCC67fYrg+o1toJQHapy/QXANq7zGyUapa1kvOL20ug69ieVbPVjWy1FrAzWlEXuxvrYhfzJ807XaHl/8gB2+vs+5Zr/a/E51+fd21H60FpF1D6UFV0wgS9zLAWDlcRLnLDZnWXDFFpBd8vCeUXlZvR65PeR9CS7LyaH6rg+O5k1wxYJR9NVDbb2PUqIUqmwvj6wnd/MP7AW4c/joKriGVC8iuOz2KYILwdXLyyWnAuK39kM5bfY5d6EdKTDWUO96P7H5H9bwn+vutRc07XuCdJt71XwXq9HeZx4VgavpWmoY10VSdPdUWnDpOjGBrCiCLj/Tsm2yp47PsuA6euK0ubCtGsaxNY9yy7MvwXXWgjcbnwNF6+uDrft+PF9h4RXW3XoW+lrEvWtYeJVtLGS/rnHkRD/Ona6CS/kdSr2I4LLbdgguBFcvL5c+XlCkYT+sk7LPokgwAzXUt/3/4UN95zE23l4v+BXG3B5FGbMaATqnOSZ95lvDUXLmKmh9rlgem9Y2ys231dCU199KbxyCKyaQ1Yjvu5dL7FpC07KJzlllN8uCS/ceKy/LNqo3csOC9yW4rEa78nzgWH64cp8TiVH13ln3P2vrcMUEpljxbdRmP9armtrDtWW3HR1W5Wa9V1LzrveA1SOn62juWyy92HM2LfUigstuwyG4EFzRhz1WGXDefsiGbp+Ul5Mall0arU020tAOq9Gic69vaRZMEmzW+jL6vxpGfc2TUph3vfx0zZyhlgrgYd2nQik32Sj1eCwccqxBNA7BtSESQUw20pDI1HuO/U6NXqWpXty3D7abt2MNmVO6sTyM83wsxHTu8NVNu+yIbxbTimiXe+99Ca6YGMqZV1Z3D7EGsuzy3C9/nXT/r6yzg/80RWmty5d1zKonU9bhii0orMa4df3YOTlGrGdNNk0VXLpWbORGHwGLYksPKM8pgmso9SKCy24LIrgQXJ0qwVglyXn7ARyKfVJeHGrM9Sm6tL6W1WDTuZQFU+992h7ao3TaNP7CslODXfnx85w6b0Fzq/z/1e2HobbD61vfFQQg5mmNLfY7DsGle5C4rLt//5iGL1n3m3JOi9n6DTjZp82cPquhqh7FlLyM6zd9Cy7lO2Vxcr/s3L4cALn33ZfgiuVZ59vWZbFhlO7+n3zxSNL9D0Vw6Xly99a0Xf1meoAUn42d+9+vzv4XO9CFrpkjkmJDIJXe939Yv+SIn7em/ViwC2ejFMGlawyhXkRw2e09BBeCK6nSb6pUOG4/YLNin81vp3myVeHm9Ow02UeNMb8x7F5O4fbGB+MLA2ssfmwIkdJVY1Q9Yk15so6rly0UWy6vEqsp8wG+cOX6aIPlxRYNFg3Bi80BSPFgj0twyZbOdtZWQtoqE+uchiY18ZW7PpsVgEH5330wbY0pK799nSshuFIcI2E5pvBWd899Ca6UHqhlK/MCJ6iXPMUx5WyhIXh19xgeG4rgShkarXo4tydZdV5K/S276neh/Zq+Hzz2YWMd4MpIW9UVTWk0HX/sZ0eS6jClnyq4hlAvIrjs9iCCC8GVXZk0VTIctx+2odvnX7+/M/klonV4Xt+c78GWWPvGDVuSrqOodakv71Svsxp0azPmdMkLron//gu6bt8K7OG4iDWslK5EgiZ8p3rf1VhR47YuT/6xlPkk4xJcskdMGLi8K0JlTghnzalIaRS/tDbdE3/xMnux19JBZRw/KduYXXOHFOqaclKkNohduYnhlPyGv+lLcKX0xiivEmZ7D9uCWfO1Hv3p4eicLXfvbqv1lcL7q/seqxemZUih8h7rOdS9qxcqpb7RMLqFkSUFnC39bZ0Nm47d+cP90bpRaYuDlGHnql8Wr7Cjzvp51X6q4NI9xJ5fl/ak6kUEl90GRHAhuJIq/aYKi+P2AzZL9lHDKhZxyVX4bivhpXW0NHxGYkpeUGcTvcD0UlU4YQ29syprl56/VSPHpZWyjTWM/bTVKF+95nhjj5fmEyjsdWyYntLUkLNUYXjTQ3uSGgCaq6D7rws6oHKSNzS1rFLnGY1TcMn7rIaZXyZN+xKhSx7aYwY/GYXDX74jyaMtZlMFrbiTmG7Kmzt+1R07K83vc+mq3CTq+ljvKYV995tYg62N4FLa6ml29xrbqrzaBqXoS3CpHKwAMv49yLGjZ11DxFRfqey0ILxsdf39u81IjX464b4a8a5crO2QBNfKSKRC3wZfvnZT9fBzhyqJXzlNtG6bHER6F6QINz8tfz9FGDl7i4MUh5TSVz2u+nndtnc/fo6Vjt5pGpEhcdjUa+7nL9zPEVzTXi9a73DZxtl9XrcILgTX3D8E8/rwt7lveXO/tGhTcuMqfLnouypeNWLqzqUeaxNEQkPrYpPlw+srrxI3aoTro6F5Od58/T8nCqLEUspcBT+fajCo8aL/pYoU9381OlPF4DgFl9h8a/u72Q0YCWA1ytVLKpuovHNY0+9zIkwqn6lzNZzNxYTb72sx2NRnuZTg2rYnHvXN3bPEZ2p+w9/1JbiUbmw5BpffUttLlqUFDRmS4JKAya2/+rZvbsTcWDChpvzpPeA/y02/ix3PEVzidprrRQSX7YCfqOD69F+dVa164aWsz6u/WNu6sg4r72n4vn7Trqz7l81+9/d+v/YzDfdDHuwHbhbsI+ESa/jEXjJdzl+4dGtjz1PMvpt3n2qca9UlT03/bRPoQg2GXOHUdH3ruBoMskfMZu78uAWXrquhR300aiw7uHMSZuqFcvebulUj83OXxIdtuuv421kRXLLVV7+9+WMh6d9juK/eoVTbhr+L1TtvGBFLw7T0PSUQQZj/vr6Lmbo8hceGJLiU95QAQH3ZsC4dzSkMbRj7HgtpX3edvo7lCi7dy7TWiwguu/03UcHVJBxixyVSYg/QUM5/7fwFteIpZoO680O5Z/JpP5RDsI96ujQHYVyNYfdyk3dcDdwuNtLwlVigA3e9tlvZpc1ka3dfyqN61tpeP/Y/ia3chu8kBJfsoXymDN2M3bN1Xj19beYcuvLK7eVyeZklwZXSY5QTttvZ1t/2LbgUzCYWHtyVVe5Www1j/1H0Pf/+6vaHJrh0DynrH8ZsU3deIwxiww01f6nOjrFjy5/YFy2vujx1PdZGcOleprFeRHDZbZNBCq5Vz7/U6oGKPXCTOP/Zz52N4BrYsM5JcDKt11RvzDi8xGoQp0y0TrWTXnJq7HZ9Wdb9X9EGc3qOmvKs8folbKuhTP5cuqbrh8cnJbiUD811ijW268oi5djly3dUsnV4v7nf2wjkWRJccoRYIfJVFo88f6iTnWMM5PZwqYw1hDR1vmMKT3K2aI0t2SP2+xR7DFFwya7PvHqsV4ecykjPqaJHWnYVg7nPrvv99x7vT3SJg5+vOR5lq63gUp6nrV5EcCG4Wj987iEsuUVw2YCWtD1p92d7BZiIeR6tl2TTOfVsaPHjnInQOeWqBprm+jRdP+e4XrC3Prqvcw9cmH+tXZM6sdvKrxoiqYuthnnQ90kKLpcfBSroa7il7KGeKZd21616Jb++OC3CpiunWRJcMUY0ZLPrc1xCcLly1zIDeoZd2bTZypnhB0L5/BV2L/WFS7dF+Ruq4JJdNbev62gCPadPrv5taHY53mJlowW5XbnmbvVO6Frfag6pllLRtWNivovgcvc2LfUigstuU9HDNeHeFQSXDairUNgOw07qOdGCkrGXjPXCVMNMPTt6sXYdPpjKjSLGKTJhm6FrCqahBkHXxqSVV9lB1/jmjVuzG4Wa8+Y87tY1Yue0CKhVborgFkujj/OyhSI0StzkNpDF1uXf2zGKhlaKrRXPxhfadnYct+DSkFx37bqtIoZ2KSMNkatLV8euvqv7VICvXGc7RzZ2ZFAh4NWDkhsY56LvbqsdkhobpqZ6Mmbv2PpLbUPsh9e1Agqp1z78fc53OY1iZRdyo+GDt//7/jPWMJRAiT33ucOlw3tR8CLZNWVtRJdv5UnlGS4pEQsi0lc9NA31ot6Fzh7hVs9UaOd5+47gQnDN/UMwbw/9uO5XwTX0olXjWA2PRffsqhYs2TryeOpFphewPLxqBCrcriY750aYKnEviiqotbW+c//u6tJbt4+CAehFqh48hZZf/MDuSovjashMbI2eEvlTY0BDVRRu/9p7dlVq7Clv8qYrn2rYqqEie+ZG3CuR35JpyhZiTLZQmG3ZQlE0ZQe9/DWfQ2HbV6w6NFp+QHMPS+bHpS3Hg0JcixOJKnn5VUbaX/7E/hE7Ci+dsiC2S5PteJ1OKh9XfnJ0aK6X6i1xpXIUVxKoYpCySSsb1Uea66f5bYqYqXeAbCrb6l2gZ/i+Zw6OQsRPi03VSycOtJ6e8qi8qqdVdYw40JIUcmg11S2WOJQDqMR9Tmu9WOJeh5TmIAXXLEUqPOfc85jDNWHRO6QHlrymvdixE3aCARiAARiYJAO7DjT3+KoHSMOjJ5k/rj3e52Msguua6xZXfX2W3nL7TAEq8diXbXh4xvvwYG/sDQMwAAMwAAMwUMeAernDoXX+d/WW1f2PY7PJ01gEF/DMJjyUK+UKAzAAAzAAAzAAA2cyoKHOvsAK9xfe2X4RcOx9pr2n3SYILoaz4WGBARiAARiAARiAgblk4MCxD0cBicKAF10a8BpOaM3fkvjSemVdrsF/hyW6EFxUsDzwMAADMAADMAADMDB3DCi6n4ugKIH0ylsne7GBAmyEPVrhdwWWQjQNSzR1KS8EFxUsDzwMwAAMwAAMwAAMzB0D4VIJI9G1rpvoUvTKUFyF3xXlsEvjnf8OT6ghuKhgeehhAAZgAAZgAAZgYK4Y0PIZoRBy37UsSO6yDeot05IisaGEuoYWWEY0DU80dSkzBBcVLA89DMAADMAADMAADMwNA69tONkotpzoUth2rSN58NiHUbtogWot1uz+a20vuGlrNL0uDXv+O51CDsFFBcuDDwMwAAMwAAMwAANzw4CCWpy14M0kgaQeKy2qfvdTB6qnXzk2muelhe9ve2zfaAHnf7h8fVI6EmFa7HjL7vfmxs6Iv9+KPwQXFSwPPgzAAAzAAAzAAAzMFQMSPn9x/hvJYsnqtUo912ckRMTMb8XMEGyB4KKCnasKdggPJXkcViVKeVFeMAADMDBMBtZte3fU65QqmLr87pHnD9HemuM2N4JrjgufF8QwXxCUG+UGAzAAAzAAA/0wsGnXqY9Dw3cRVE3/1TDC1WuOI7bmvL2N4JpzAKiw+6mwsSN2hAEYgAEYgIHhMqB5WX99wZpehxh+8eqN1fa9zNniufjPCsGF4MLrAgMwAAMwAAMwAANzz8Dh46dHwTG+cGV6IIy6nq0vX7upt0WUESvDFfF+2SG4qGDnvoL1Hwj2Z6NioxwpRxiAARiAgS4M7Nz//kh8nXfNxmjPl4JvLFiytXrg2YPV5rdP0a6ibX0GAwguoDgDii4VFP/lBQcDMAADMAADMDCLDOw59EGlNbdeWXeyWrf93ertg+9XWvB4Fu+Ve+q3XBFcCC4qChiAARiAARiAARiAARiAgUIMILgKGRbPQL+eAeyJPWEABmAABmAABmAABobIAIILwYU3AwZgAAZgAAZgAAZgAAZgoBADCK5Chh2i+ibPeI1gAAZgAAZgAAZgAAZgoF8GEFwILrwZMAADMAADMAADMAADMAADhRhAcBUyLJ6Bfj0D2BN7wgAMwAAMwAAMwAAMDJEBBBeCC28GDMAADMAADMAADMAADMBAIQYQXIUMO0T1TZ7xGsEADMAADMAADMAADMBAvwwguBBceDNgAAZgAAZgAAZgAAZgAAYKMYDgKmRYPAP9egawJ/aEARiAARiAARiAARgYIgMILgQX3gwYgAEYgAEYgAEYgAEYgIFCDCC4Chl2iOqbPOM1ggEYgAEYgAEYgAEYgIF+GUBwIbjwZsAADMAADMAADMAADMAADBRiAMFVyLB4Bvr1DGBP7AkDMAADMAADMAADMDBEBhBcCC68GTAAAzAAAzAAAzAAAzAAA4UYQHAVMuwQ1Td5xmsEAzAAAzAAAzAAAzAAA/0ygOBCcOHNgAEYgAEYgAEYgAEYgAEYKMQAgquQYfEM9OsZwJ7YEwZgAAZgAAZgAAZgYIgMILgQXHgzYAAGYAAGYAAGYAAGYAAGCjGA4Cpk2CGqb/KM1wgGYAAGYAAGYAAGYAAG+mUAwYXgwpsBAzAAAzAAAzAAAzAAAzBQiAEEVyHD4hno1zOAPbEnDMAADMAADMAADMDAEBlAcCG48GbAAAzAAAzAAAzAAAzAAAwUYgDBVciwQ1Tf5BmvEQzAAAzAAAzAAAzAAAz0ywCCC8GFNwMGYAAGYAAGYAAGYAAGYKAQAwiuQobFM9CvZwB7Yk8YgAEYgAEYgAEYgIEhMoDgQnDhzYABGIABGIABGIABGIABGCjEAIKrkGGHqL7JM14jGIABGIABGIABGIABGOiXAQQXggtvBgzAAAzAAAzAAAzAAAzAQCEGEFyFDItnoF/PAPbEnjAAAzAAAzAAAzAAA0NkAMGF4MKbAQMwAAMwAAMwAAMwAAMwUIgBBFchww5RfZNnvEYwAAMwAAMwAAMwAAMw0C8DCC4EF94MGIABGIABGIABGIABGICBQgwguAoZFs9Av54B7Ik9YQAGYAAGYAAGYAAGhsgAggvBhTcDBmAABmAABmAABmAABmCgEAMIrkKGHaL6Js94jWAABmAABmAABmAABmCgXwYQXAguvBkwAAMwAAMwAAMwAAMwAAOFGEBwFTIsnoF+PQPYE3vCAAzAAAzAAAzAAAwMkQEEF4ILbwYMwAAMwAAMwAAMwAAMwEAhBhBchQw7RPVNnvEawQAMwAAMwAAMwAAMwEC/DCC4EFx4M2AABmAABmAABmAABmAABgoxgOAqZFg8A/16BrAn9oQBGIABGIABGIABGBgiAwguBBfeDBiAARiAARiAARiAARiAgUIMILgKGXaI6ps84zWCARiAARiAARiAARiAgX4ZQHAhuPBmwAAMwAAMwAAMwAAMwAAMFGIAwVXIsHgG+vUMYE/sCQMwAAMwAAMwAAMwMEQGEFwILrwZMAADMAADMAADMAADMAADhRj4f4WlDKfMKDiKAAAAAElFTkSuQmCC;" vertex="1" parent="1">
          <mxGeometry x="670" y="90" width="388.93" height="80.5" as="geometry" />
        </mxCell>
        <mxCell id="p6E_UJaJ-BBpeie744uk-28" value="Cloud SQL" style="html=1;fillColor=#5184F3;strokeColor=none;verticalAlign=top;labelPosition=center;verticalLabelPosition=bottom;align=center;spacingTop=-6;fontSize=11;fontStyle=1;fontColor=#999999;shape=mxgraph.gcp2.hexIcon;prIcon=cloud_sql" vertex="1" parent="1">
          <mxGeometry x="397.68" y="1042" width="90.25" height="80" as="geometry" />
        </mxCell>
        <mxCell id="p6E_UJaJ-BBpeie744uk-33" value="1" style="rounded=1;whiteSpace=wrap;html=1;fillColor=#007CBD;strokeColor=none;fontColor=#FFFFFF;fontStyle=1;fontSize=22;" vertex="1" parent="1">
          <mxGeometry x="40" y="882" width="40" height="38" as="geometry" />
        </mxCell>
        <mxCell id="p6E_UJaJ-BBpeie744uk-35" value="Writer" style="shape=umlActor;verticalLabelPosition=bottom;verticalAlign=top;html=1;" vertex="1" parent="1">
          <mxGeometry x="89.77000000000001" y="918" width="21.5" height="43" as="geometry" />
        </mxCell>
        <mxCell id="p6E_UJaJ-BBpeie744uk-36" value="Cloud Run" style="html=1;fillColor=#5184F3;strokeColor=none;verticalAlign=top;labelPosition=center;verticalLabelPosition=bottom;align=center;spacingTop=-6;fontSize=11;fontStyle=1;fontColor=#999999;shape=mxgraph.gcp2.hexIcon;prIcon=cloud_run;dashed=1;" vertex="1" parent="1">
          <mxGeometry x="598.1" y="1047" width="81.9" height="75" as="geometry" />
        </mxCell>
        <mxCell id="p6E_UJaJ-BBpeie744uk-38" value="" style="shape=image;verticalLabelPosition=bottom;labelBackgroundColor=#ffffff;verticalAlign=top;aspect=fixed;imageAspect=0;image=https://landscape.cncf.io/logos/open-resty.svg;" vertex="1" parent="1">
          <mxGeometry x="420" y="670" width="219.52" height="90" as="geometry" />
        </mxCell>
        <mxCell id="p6E_UJaJ-BBpeie744uk-39" value="Cloud Run" style="html=1;fillColor=#5184F3;strokeColor=none;verticalAlign=top;labelPosition=center;verticalLabelPosition=bottom;align=center;spacingTop=-6;fontSize=11;fontStyle=1;fontColor=#999999;shape=mxgraph.gcp2.hexIcon;prIcon=cloud_run;dashed=1;" vertex="1" parent="1">
          <mxGeometry x="595.78" y="725" width="81.9" height="75" as="geometry" />
        </mxCell>
        <mxCell id="p6E_UJaJ-BBpeie744uk-41" value="" style="shape=image;verticalLabelPosition=bottom;labelBackgroundColor=#ffffff;verticalAlign=top;aspect=fixed;imageAspect=0;image=https://a.slack-edge.com/80588/img/slack_api_logo_vogue.png;" vertex="1" parent="1">
          <mxGeometry x="800" y="1032" width="197.17" height="45.5" as="geometry" />
        </mxCell>
        <mxCell id="p6E_UJaJ-BBpeie744uk-43" value="" style="shape=mxgraph.bpmn.service_task;html=1;outlineConnect=0;strokeWidth=1;" vertex="1" parent="1">
          <mxGeometry x="600" y="922" width="40" height="39" as="geometry" />
        </mxCell>
        <mxCell id="p6E_UJaJ-BBpeie744uk-44" value="" style="shape=mxgraph.bpmn.service_task;html=1;outlineConnect=0;strokeWidth=1;" vertex="1" parent="1">
          <mxGeometry x="800" y="922.5" width="40" height="39" as="geometry" />
        </mxCell>
        <mxCell id="p6E_UJaJ-BBpeie744uk-46" value="" style="strokeColor=#dddddd;shadow=1;strokeWidth=1;rounded=1;absoluteArcSize=1;arcSize=2;fillColor=#ffffff;" vertex="1" parent="1">
          <mxGeometry x="890" y="1332" width="120" height="60" as="geometry" />
        </mxCell>
        <mxCell id="p6E_UJaJ-BBpeie744uk-47" value="Google&#xa;Analytics" style="dashed=0;connectable=0;html=1;fillColor=#5184F3;strokeColor=none;shape=mxgraph.gcp2.google_analytics;part=1;labelPosition=right;verticalLabelPosition=middle;align=left;verticalAlign=middle;spacingLeft=5;fontColor=#999999;fontSize=12;" vertex="1" parent="p6E_UJaJ-BBpeie744uk-46">
          <mxGeometry width="45" height="45" relative="1" as="geometry">
            <mxPoint x="5" y="7" as="offset" />
          </mxGeometry>
        </mxCell>
        <mxCell id="p6E_UJaJ-BBpeie744uk-48" value="4" style="rounded=1;whiteSpace=wrap;html=1;fillColor=#007CBD;strokeColor=none;fontColor=#FFFFFF;fontStyle=1;fontSize=22;" vertex="1" parent="1">
          <mxGeometry x="400" y="882" width="40" height="38" as="geometry" />
        </mxCell>
        <mxCell id="p6E_UJaJ-BBpeie744uk-49" value="5" style="rounded=1;whiteSpace=wrap;html=1;fillColor=#007CBD;strokeColor=none;fontColor=#FFFFFF;fontStyle=1;fontSize=22;" vertex="1" parent="1">
          <mxGeometry x="760" y="880" width="40" height="38" as="geometry" />
        </mxCell>
        <mxCell id="p6E_UJaJ-BBpeie744uk-50" value="7" style="rounded=1;whiteSpace=wrap;html=1;fillColor=#007CBD;strokeColor=none;fontColor=#FFFFFF;fontStyle=1;fontSize=22;" vertex="1" parent="1">
          <mxGeometry x="760" y="1162.5" width="40" height="38" as="geometry" />
        </mxCell>
        <mxCell id="p6E_UJaJ-BBpeie744uk-51" value="" style="shape=image;verticalLabelPosition=bottom;labelBackgroundColor=#ffffff;verticalAlign=top;aspect=fixed;imageAspect=0;image=https://uit.stanford.edu/sites/default/files/images/2019/06/14/7.png;" vertex="1" parent="1">
          <mxGeometry x="632.69" y="1211" width="58" height="58" as="geometry" />
        </mxCell>
        <mxCell id="p6E_UJaJ-BBpeie744uk-53" value="" style="shape=flexArrow;endArrow=classic;html=1;" edge="1" parent="1">
          <mxGeometry width="50" height="50" relative="1" as="geometry">
            <mxPoint x="149.99000000000004" y="939.16" as="sourcePoint" />
            <mxPoint x="209.99" y="939.16" as="targetPoint" />
          </mxGeometry>
        </mxCell>
        <mxCell id="p6E_UJaJ-BBpeie744uk-54" value="" style="shape=flexArrow;endArrow=classic;html=1;" edge="1" parent="1">
          <mxGeometry width="50" height="50" relative="1" as="geometry">
            <mxPoint x="141.4999999999999" y="618.1599999999999" as="sourcePoint" />
            <mxPoint x="201.4999999999999" y="618.1599999999999" as="targetPoint" />
          </mxGeometry>
        </mxCell>
        <mxCell id="p6E_UJaJ-BBpeie744uk-55" value="" style="shape=flexArrow;endArrow=classic;html=1;" edge="1" parent="1">
          <mxGeometry width="50" height="50" relative="1" as="geometry">
            <mxPoint x="509.99999999999994" y="939.1599999999999" as="sourcePoint" />
            <mxPoint x="569.9999999999999" y="939.1599999999999" as="targetPoint" />
          </mxGeometry>
        </mxCell>
        <mxCell id="p6E_UJaJ-BBpeie744uk-56" value="" style="shape=flexArrow;endArrow=classic;html=1;" edge="1" parent="1">
          <mxGeometry width="50" height="50" relative="1" as="geometry">
            <mxPoint x="870" y="939.1599999999999" as="sourcePoint" />
            <mxPoint x="930" y="939.1599999999999" as="targetPoint" />
          </mxGeometry>
        </mxCell>
        <mxCell id="p6E_UJaJ-BBpeie744uk-57" value="" style="shape=flexArrow;endArrow=classic;html=1;" edge="1" parent="1" source="p6E_UJaJ-BBpeie744uk-32" target="p6E_UJaJ-BBpeie744uk-29">
          <mxGeometry width="50" height="50" relative="1" as="geometry">
            <mxPoint x="180" y="840" as="sourcePoint" />
            <mxPoint x="230" y="820" as="targetPoint" />
          </mxGeometry>
        </mxCell>
        <mxCell id="p6E_UJaJ-BBpeie744uk-58" value="" style="shape=flexArrow;endArrow=classic;html=1;" edge="1" parent="1" source="p6E_UJaJ-BBpeie744uk-29" target="p6E_UJaJ-BBpeie744uk-30">
          <mxGeometry width="50" height="50" relative="1" as="geometry">
            <mxPoint x="189.9999999999999" y="850" as="sourcePoint" />
            <mxPoint x="190.0000000000001" y="809.528" as="targetPoint" />
          </mxGeometry>
        </mxCell>
        <mxCell id="p6E_UJaJ-BBpeie744uk-59" value="" style="shape=flexArrow;endArrow=classic;html=1;" edge="1" parent="1" source="p6E_UJaJ-BBpeie744uk-30" target="p6E_UJaJ-BBpeie744uk-31">
          <mxGeometry width="50" height="50" relative="1" as="geometry">
            <mxPoint x="189.9999999999999" y="850" as="sourcePoint" />
            <mxPoint x="190.0000000000001" y="809.528" as="targetPoint" />
          </mxGeometry>
        </mxCell>
        <mxCell id="p6E_UJaJ-BBpeie744uk-60" value="" style="shape=flexArrow;endArrow=classic;html=1;" edge="1" parent="1" source="p6E_UJaJ-BBpeie744uk-31" target="p6E_UJaJ-BBpeie744uk-40">
          <mxGeometry width="50" height="50" relative="1" as="geometry">
            <mxPoint x="680.0000000000001" y="868" as="sourcePoint" />
            <mxPoint x="729.6800000000001" y="868" as="targetPoint" />
          </mxGeometry>
        </mxCell>
        <mxCell id="p6E_UJaJ-BBpeie744uk-61" value="" style="shape=flexArrow;endArrow=classic;html=1;" edge="1" parent="1" source="p6E_UJaJ-BBpeie744uk-21" target="p6E_UJaJ-BBpeie744uk-45">
          <mxGeometry width="50" height="50" relative="1" as="geometry">
            <mxPoint x="360" y="1280" as="sourcePoint" />
            <mxPoint x="410" y="1230" as="targetPoint" />
          </mxGeometry>
        </mxCell>
        <mxCell id="p6E_UJaJ-BBpeie744uk-62" value="" style="shape=image;verticalLabelPosition=bottom;labelBackgroundColor=#ffffff;verticalAlign=top;aspect=fixed;imageAspect=0;image=data:image/png,iVBORw0KGgoAAAANSUhEUgAAATMAAACkCAMAAADMkjkjAAAApVBMVEUAW5v///8AjscAWJgchrwAV5kAVZkATZQAUJYAjMY8c6hLgK9De62zxdkAhsMAi8YUYJ5fi7YdZaHb5O3k6vLR3urU4ewASpP1+fsAOozq8fdoj7gAg8IIksohlss7ns7V6fQWf7dLpNEWd7Cx1em82+zG4O/Y6/RcrNVrsth5uNuGv96TxeGey+Slz+YWaqWLqMeovtV1m8DF1eMARZGOq8mswdeyiGxHAAAIR0lEQVR4nO2daVviPBiFU2rL4oaAggvOyDgz6iy4jO///2lvFaVZnqQnabVt0vNtLgrSew7Q9m4SFmG5HPZ8z/ASZMGwza4P6t6jT8jBdaXMLuven08JWDSM2fcQapYV7XuFzL74/232EvAbDWL2I4yaZUX7URmzQGqWFe1LVcy+hlIzsGgIs1UoNcuKtqqG2c9wapYV7WslzG4O696RT8zhTRXMzi7q3o9PzcXPCpjdhlSzrGi35ZnJNdvxKyq0i7PSzO7Eml0lsUdJ2FIt2l1ZZgvxR3M5Zl4lvlKLdrAoyeyXXLO697LijImi/SrHzPOauRWtgNlvz2tGF+13KWaHwmnTclL3HlafRC3a8NBcNDOzP+JHc8e/mjE2UYt28KcEs573NcuKph6jDYfuzP4GUDO6aH+dmYkvtlzXvXcfE6poS1dm10HUjLE1UTSTtjMxEwXdch3XvXMfFKJoRm1nYCYLOl9rxmKqaAZtZ2AmmhN/a0Z/oxmKpmcmCbqhv8jooultip6ZJOi+ecyMJeoXmkHbaZnJgs5nZCz+pkLT2xQts5V4du51zbKiqR9OvbbTMZMFXd079cEhi6azKTpmN0HVLIOmMtNqOw0zyZws696lDw9VNJ220zC7FX80r3yvWRbi2qNG29HMgquZpmi0tqOZyYIugJqRF7lpbUcy896cUMFtCsnMd0FHB9Z2FLOFiCyMmpE2hS4axcx/QUcH1XYUs2EA5oQKqe0wZiEIOjqgtiOYLQOtGX3tsYcwC8WcUMG0ncpMNid178dnBtN2CrOQawZqO4XZZTDmhAqk7WRmwQg6OpC2k5mFI+joIDZFYiaPoAsNWVY0FZqs7SRmq4AEHR2gaCKzoAQdHUDbicxCMydUiKIdrvTMAhN0dIq1ncDstqsZA7QdzyxAc0Kl0KbwzO5sa5ak70k0x75pns2rJUmKJXtFm23fXpxIOpjP+4PU5uCcuBHhlma2kGpWeEl7sJ8/+aRPbBCvub+0+/Ku+ycRmsVp0bijPNOXvx7vaV9qun8/mg/QrxrKpvBF45hZCzqe2THJbMK98Q2zY5jD2WnhoEDxrydaZpvXexjN0bKZtV3OzF7QtYtZlunRHOpagbbLmdkLutYxi6KncYpAM2u7LbOF/dCmFjLL3sYAYGbWdltmDoKulcyicwSaUdttmTkIunYyi46Aj6dxENQ7M5ehTS1lFk2AHwKTtntnJgk6yJx8LDOb47MTK2bksaQUk7Z7Y+ZkThyYxSMx/G4+So8l0r/PuW33pMdimVm+wd7R/b5E/wjYPYO2e2PmNLTJgRmLxRObMb8nqfBQLG2b8kjGibStzGyyfej17OlRoDZ1K1pvyTOTzMkQO152YSZtIDAz/9Vkl0dC/KeKzMQN0oFw0jYCOqHXdhtmbuakRcxY3J9xjz4Axxv6QVCvzBzNSZuYiU9HfgX02o6pNYOvNbaKGZtP80cXyBmU1qYw95q1jFn6UPB85c3ptN0LM1dB1zJmj9zDI+RXjiraasNMFnTAq23SLmbJkS0znbZjJQQdz+zptK9mzl85r50Zf0wMMSNtyuqFmSToLMwJz2wxI9MgZul9wfOJt0drO1ZC0PHMilM3s/4T9zC6k8QloZuIlRB0rWImfLfOgOOz1yeR2o5ZC7o8DWMWG5n942u2j1x3fA1lUzxiZupZ/I8/OoMubGyi9ixjFsBnM077E+G63QKtmeaz6elvQDLfJhk98p/LLM+QfGK6WzeUYw2Lm4GazGyxjfpOStXs9VijmmPapjEzBZEom7dH1GxFnjs5MVsck2kiswfwQMN07lTNOTp17tRPGshsfw7unukcvZJrQfR9QfWdo2vzACMzXgtyHRTQRmbnMDKWqMtz5NcclaKBR3ztY/Zfgn79F17brsChtIDZ2TODT5lYoUORXR04mK5hzPT3OWa8nu7X89TqnuoiV+c2aLNhzISePZ7n2V0P5gM7YIATLn/vQdOYjVNZs1um+N4Dp0HoTWaGXYg1/LXie1xK30vlGzPkXqqy9+x5xoyaakO5Z6/svaGeMcPuDZXvQQYmCfKXGXgPcsl73f1iBt7rXnJMhVfM4DEV5cbueMWsYMq9jx0j1k5mRYMRy4xFbBgzs9+0CT4W0XrMa8OYVdUzqzGvttoufZ5uQ5vp8Wy7wWyPQjLOX2FGQeWS7OUvNqUOuZNRwQZgrMZWW2u7NL/yr7kyxbsBtw3yJNy2bhtAsRzD380VwazniujmJHGYk6Sb+8Z+7puQFkGhgyyN0s3lJYa61lgwl1c3Z5zDnHHd3IRKCucm7ObAVGpWPAdmN9eq9G0GzLUadNFc5/Tt5o4WagbNHd3NUS7UDJujvJsLn6sZOBd+t+ZCHnjNhUDX9oAXkenWkNmm1Boy3VpFxpp1a2LlKbcmVogziJZeey3EmWrLrvEXXtEqWEsyOJtSwZqloU29XcnauKGtwawis1+DOSxtV9Fa392a8loyemYBLY2CCDqIWUDaTj+0yZZZMNoOEnQYM7eJMVsYSNCBzEKxKZCgA5lF4mv5qu0wQYcycxkE1b5ggg5lFvUCsCnGoU0OzELQdqCgg5lF9gsxtC2koDPPjl7AzH9thwo6nJn3NgU3JzAzRdv5dlwLCzoLZp4XjbwIVLTWQxEzRdslsUdJcEFnw0yyKb0dv6LWTCPobJjJ2s736ASdFTO5aJ5HJ+ismMnazu9oBZ0dM1nbeR29ObFiJg+C8jl6QWfJTNZ2HsdgTuyYydrO3xgEnS0zWdt5G6hmGLNQimYSdNbMZG3naUyCzpqZpO18DVYzlNl1CEUzCjp7ZtKwTi8DfptF0f+Mvyksbna3tAAAAABJRU5ErkJggg==;" vertex="1" parent="1">
          <mxGeometry x="432.7" y="605" width="55.23" height="29.5" as="geometry" />
        </mxCell>
        <mxCell id="p6E_UJaJ-BBpeie744uk-63" value="" style="shape=image;verticalLabelPosition=bottom;labelBackgroundColor=#ffffff;verticalAlign=top;aspect=fixed;imageAspect=0;image=https://upload.wikimedia.org/wikipedia/commons/thumb/c/cf/Lua-Logo.svg/1200px-Lua-Logo.svg.png;" vertex="1" parent="1">
          <mxGeometry x="600" y="599.5" width="40" height="40" as="geometry" />
        </mxCell>
        <mxCell id="p6E_UJaJ-BBpeie744uk-66" value="" style="shape=flexArrow;endArrow=classic;html=1;" edge="1" parent="1">
          <mxGeometry width="50" height="50" relative="1" as="geometry">
            <mxPoint x="511.9099999999999" y="619.2599999999999" as="sourcePoint" />
            <mxPoint x="571.9099999999999" y="619.2599999999999" as="targetPoint" />
          </mxGeometry>
        </mxCell>
        <mxCell id="p6E_UJaJ-BBpeie744uk-67" value="" style="shape=flexArrow;endArrow=classic;html=1;" edge="1" parent="1" source="p6E_UJaJ-BBpeie744uk-40" target="p6E_UJaJ-BBpeie744uk-21">
          <mxGeometry width="50" height="50" relative="1" as="geometry">
            <mxPoint x="548.6454658385094" y="823.9999999999998" as="sourcePoint" />
            <mxPoint x="549.0345341614907" y="878" as="targetPoint" />
          </mxGeometry>
        </mxCell>
      </root>
    </mxGraphModel>
  </diagram>
</mxfile>
